<?xml version="1.0" encoding="UTF-8" standalone="yes"?>
<!-- Created with sK1/UniConvertor (http://sk1project.org/) -->
<svg xmlns="http://www.w3.org/2000/svg" xmlns:xlink="http://www.w3.org/1999/xlink"
  width="512pt" height="409.6pt" viewBox="0 0 512 409.6"
  fill-rule="evenodd">
<g>
<path style="stroke:none; fill:#ffff81" d="M 0 0L 0 48.8C 0 53.566 -1.89919 63.432 0.482716 67.6068C 2.42162 71.0051 7.32545 66.0606 8 64C 17.6386 63.9203 26.9036 61.5535 36.8 61.6006C 39.9742 61.6157 44.8564 63.2018 47.2 60.8L 48 60.8C 50.2542 68.5129 66.1496 69.7081 72.0445 73.8334C 76.1605 76.7138 85.8728 85.8512 87.6184 90.448C 89.1368 94.4472 87.9704 100.558 88 104.8C 88.0336 109.668 89.488 115.602 83.8744 118.441C 79.717 120.543 71.719 118.703 67.2 118.4C 67.1742 110.901 65.2202 108.156 58.4 105.6C 61.4114 101.173 56.5216 96.2544 52.9321 93.6472C 47.4678 89.68 32.7989 91.3384 26.4716 93.2512C 11.1705 97.8776 9.47248 112.765 4.8 125.6C 3.0235 125.288 1.79681 125.332 0 125.6L 0 300C 3.84975 300.864 6.20978 304.09 9.60248 306.023C 17.5571 310.555 26.9844 317.189 36 319.585C 45.8858 322.213 58.5361 320 68.8 320C 98.0728 320 135.66 320.25 152.788 291.988C 156.046 286.612 156.821 281.898 158.339 276C 159.993 269.574 160.785 262.68 159.849 256.003C 158.89 249.158 149.152 246.446 144 243.169C 136.066 238.121 131.973 231.673 129.542 222.667C 125.766 208.677 125.6 196.059 125.6 181.6C 125.6 174.593 126.855 166.77 125.272 160C 123.906 154.162 123.159 144.188 117.6 140.8C 118.389 139.618 118.4 139.838 118.4 138.4C 113.782 134.325 115.174 127.27 115.201 121.6L 116 76C 116 71.4884 114.166 61.7489 116.822 57.9507C 120.356 52.8966 134.917 68.1826 136 72C 139.894 74.1249 147.568 86.0912 148.8 90.4C 152.016 90.2528 154.898 89.9768 156.8 87.2L 159.2 88C 163.955 85.1192 173.626 85.6024 179.2 85.6C 186.655 85.5968 195.817 84.1648 203.064 85.9672L 236 95.012C 238.933 95.7208 241.734 98.4968 244.728 98.5216C 247.747 98.5464 250.266 95.04 252.729 93.6632C 259.056 90.1288 266.313 87.8552 272.228 83.556C 278.667 78.8769 285.938 74.0902 292.735 69.929C 295.466 68.2569 298.582 66.1295 300.79 69.8673C 304.443 76.0558 295.851 83.4336 294.337 88.8C 290.623 101.955 288.864 113.838 286.96 127.2C 286.177 132.697 283.574 140.286 284.8 145.6C 280.808 146.93 283.504 147.667 283.2 150.4L 278.4 159.2C 276.171 163.658 276.099 167.152 275.2 171.2C 274.886 172.611 271.529 174.73 270.4 176C 267.945 178.762 269.608 184.775 268.8 187.2L 265.6 190.4C 263.666 194.268 258.678 204.856 262.4 205.6C 261.286 206.725 260.742 207.417 260 208.8C 258.817 208.011 259.038 208 257.6 208L 256.8 211.2C 255.617 210.411 255.838 210.4 254.4 210.4C 251.187 218.566 247.441 225.951 241.906 232.8C 238.897 236.522 233.169 240.204 231.651 244.804C 229.895 250.126 231.2 257.629 231.2 263.2L 231.2 301.6C 232.646 302.064 233.708 302.37 235.2 302.4C 235.59 304.045 235.962 304.915 236.8 306.4L 232.8 307.2C 234.459 315.832 236.782 324.351 239.2 332.8C 239.748 331.802 239.799 331.562 240 330.4C 244.592 335.729 239.601 349.097 248.8 352C 248.8 360.147 249.323 372.535 244 379.2C 243.293 388.981 230.264 401.6 224.8 409.6L 472 409.6C 468.067 403.849 462.442 398.935 458.976 392.892C 453.826 383.91 449.658 374.034 444.8 364.8L 443.2 365.6C 440.278 360.17 434.406 355.925 431.57 350.462C 427.995 343.574 427.882 327.05 419.2 324C 420.085 315.482 413.119 309.461 410.915 301.6C 407.53 289.527 409.809 277.558 407.2 265.6C 410.601 263.752 408.8 252.493 408.8 248.8L 411.2 248.8C 410.759 236.867 417.85 232.422 423.2 223.2C 381.31 202.704 389.6 150.718 389.6 112C 389.6 97.268 385.747 80.348 391.2 66.4C 400.558 68.2882 410.074 79.9625 416.571 87.064C 418.427 89.0936 420.157 93.3392 422.57 94.5416C 427.461 96.9792 435.557 93.6256 440.8 93.6008L 480 93.6C 485.838 93.6096 491.253 95.9352 496.8 93.6C 497.294 91.2384 498.467 89.0488 500 87.2L 499.2 85.6C 504.344 82.4792 505.991 74.6737 512 72.8L 512 0L 0 0z"/>
<path style="stroke:none; fill:#f9faa3" d="M 116.8 138.4L 117.6 138.4C 113.154 118.953 116.8 96.02 116.8 76C 116.8 69.9547 114.328 58.9096 121.6 56.8C 113.351 53.6056 116 69.863 116 74.4C 116 86.848 116.778 99.5816 115.928 112C 115.372 120.125 113.153 130.821 116.8 138.4z"/>
<path style="stroke:none; fill:#060202" d="M 160.8 252C 160.8 272.041 158.014 290.243 142.328 304.632C 137.679 308.898 131.267 310.218 125.6 312.608C 106.198 320.79 86.744 320.8 65.6 320.8C 56.2461 320.8 45.9238 322.011 36.8 319.585C 23.5614 316.066 12.2659 305.734 0 300C 0.0073439 309.504 6.98606 311.226 14.4 315.604C 32.2502 326.142 47.012 326.4 67.2 326.4C 103.674 326.4 150.35 324.89 163.826 283.2C 167.113 273.032 166.4 262.529 166.4 252C 185.669 252 206.486 254.254 224.8 247.2C 224.8 268.107 221.026 293.22 225.975 313.6C 228.794 325.205 233.877 336.745 237.875 348C 239.594 352.837 242.828 357.03 242.25 362.4C 240.166 381.745 225.202 393.275 217.6 409.6C 233.912 409.587 244.116 381.689 247.401 368C 251.987 348.888 234.886 328.154 231.407 309.6C 227.424 288.354 235.676 263.755 229.6 243.2C 243.508 237.962 249.159 221.781 255.407 209.6C 264.74 191.405 275.625 171.638 281.519 152C 285.323 139.326 283.69 126.164 286.863 113.6C 289.453 103.35 292.255 91.1056 296.812 81.6C 298.155 78.7986 302.75 73.0707 299.517 70.1179C 296.477 67.3415 288.41 74.0114 285.6 75.5623C 276.398 80.6424 266.479 86.0728 257.6 91.7152C 253.966 94.0256 249.918 99.0352 245.828 100.202C 242.653 101.108 238.722 96.5224 236 95.3088C 228.807 92.1016 218.906 90.4328 211.2 88.2392C 193.363 83.1616 166.818 84.5672 149.6 91.2C 144.486 81.18 136.771 71.1146 128.799 63.203C 126.672 61.0915 122.202 55.6543 118.654 57.6661C 115.506 59.4515 116.8 66.6006 116.8 69.6L 116.8 106.4C 116.799 115.431 114.314 125.473 116.426 134.4C 118.69 143.972 124.725 152.442 126.16 162.4C 130.422 191.978 119.001 223.881 146.849 244.704C 150.956 247.775 155.71 251.029 160.8 252z"/>
<path style="stroke:none; fill:#f9faa3" d="M 47.2 60.8C 46.1735 61.6226 45.2686 61.9369 44 62.4C 47.065 64.2725 50.9777 65.2611 54.4 66.4C 52.648 63.8392 49.4416 63.0227 47.2 60.8M 17.6 61.6L 17.6 62.4L 43.2 62.4C 36.3154 59.5111 25.0709 61.6 17.6 61.6z"/>
<path style="stroke:none; fill:#060202" d="M 0 79.2C 4.89292 76.1935 9.76128 71.3083 15.2 69.5426C 36.2914 62.6952 65.2032 72.966 79.029 89.6312C 84.9872 96.8128 83.4584 112.762 72.8 112.8C 70.8325 90.4064 44.8347 80.1952 25.6 86.836C 9.16968 92.508 0.00186318 107.12 0 124C 8.8584 121.486 6.78367 112.902 10.0747 106.472C 13.5732 99.6368 23.2322 93.8192 30.4 91.9392C 43.1811 88.588 54.4394 92.36 61.992 103.215C 64.7872 107.232 66.3371 116.421 71.2352 117.989C 85.5376 122.567 87.2 110.72 87.2 100C 87.2 96.136 87.9296 91.4352 85.8064 88C 73.5724 68.204 46.7446 62.3987 25.6 62.4C 14.1125 62.4007 0.00148255 65.7696 0 79.2z"/>
<path style="stroke:none; fill:#f9faa3" d="M 8 66.4C 9.16536 65.5173 9.51728 65.1653 10.4 64C 8.5088 64.386 8.386 64.5088 8 66.4z"/>
<path style="stroke:none; fill:#df8968" d="M 122.4 65.6L 122.4 115.2L 123.2 115.2L 123.2 83.2C 123.2 77.9854 122.194 71.8872 124.8 67.2C 123.851 66.2509 123.533 65.9777 122.4 65.6z"/>
<path style="stroke:none; fill:#f9faa3" d="M 132 66.4L 135.2 71.2L 136 71.2C 135.26 68.6077 134.41 67.6038 132 66.4M 285.6 74.4L 285.6 75.2C 289.497 74.3063 293.71 69.6938 297.553 69.8444C 304.013 70.0975 295.825 82.7128 295.2 85.6C 298.23 82.8808 306.99 67.9356 297.616 67.3698C 293.774 67.1378 288.56 72.2712 285.6 74.4M 391.734 66.6667C 391.378 67.0222 392.222 66.9778 392.266 66.9334C 392.622 66.5778 391.778 66.6223 391.734 66.6667M 394.134 66.6667C 393.778 67.0222 394.622 66.9778 394.666 66.9334C 395.022 66.5778 394.178 66.6223 394.134 66.6667M 2.4 69.6C 4.3475 69.0789 5.02616 68.6718 6.4 67.2C 4.45252 67.7211 3.77382 68.1282 2.4 69.6z"/>
<path style="stroke:none; fill:#060202" d="M 423.2 223.2L 423.2 224C 411.626 234.011 410.83 248.113 409.464 262.4C 408.055 277.144 407.658 293.043 412.841 307.169C 416.986 318.468 424.455 328.8 429.986 339.428C 432.303 343.882 432.092 349.117 434.692 353.6C 437.677 358.746 442.55 362.167 445.588 367.203C 453.701 380.651 461.741 409.598 480 409.6C 469.325 394.431 460.57 378.909 450.705 363.203C 447.574 358.22 442.665 354.898 439.845 349.6C 437.409 345.024 437.57 339.702 435.154 335.2C 424.978 316.24 414.4 299.85 414.4 277.6C 414.4 261.909 414.692 240.41 426.858 228.934C 429.902 226.061 442.298 229.6 447.2 229.6L 491.2 229.6C 496.902 229.6 504.287 230.928 508.58 226.294C 514.02 220.422 512 209.743 512 202.4L 511.2 202.4C 507.274 208.249 508.615 218.306 502.981 222.606C 497.295 226.945 481.368 224 474.4 224C 463.129 224 449.398 226.142 438.4 223.685C 421.71 219.958 406.634 203.074 400.167 188C 394.386 174.524 396 159.078 396 144.8L 395.2 76C 401.391 80.4872 408.582 87.4424 413.11 93.6032C 415.038 96.2272 415.682 102.11 418.712 103.514C 421.846 104.966 425.117 101.862 428.003 101.083C 433.944 99.48 440.315 100 446.4 100C 457.644 100 469.637 98.8072 480.8 100.147C 486.484 100.83 493.406 105.066 499.117 102.514C 503.308 100.641 503.886 95.7496 505.423 92C 508.327 84.9128 511.999 81.6784 512 73.6C 503.738 79.436 499.878 88.3464 496.8 97.6C 480.585 94.4552 465.35 94.4 448.8 94.4C 439.633 94.4 430.351 93.6048 421.6 96.8C 419.19 86.296 407.064 79.3297 400.594 71.2155C 398.471 68.5547 394.19 65.1779 390.882 68.4827C 388.582 70.7817 389.6 76.2457 389.6 79.2L 390.4 109.6C 390.416 151.234 382.049 197.898 423.2 223.2z"/>
<path style="stroke:none; fill:#df8968" d="M 19.2 68L 19.2 68.8L 41.6 68.8C 35.481 66.2323 25.8302 68 19.2 68z"/>
<path style="stroke:none; fill:#fc8142" d="M 123.2 68C 123.2 87.9472 120.844 109.022 122.474 128.8C 122.875 133.655 126.023 146.31 131.2 147.2C 133.33 168.242 130.99 190.006 135.121 210.403C 137.943 224.338 141.43 236.714 156.032 243.094C 162.578 245.952 170.626 245.6 177.6 245.6C 190.093 245.6 202.123 245.97 214.4 243.385C 218.466 242.529 221.479 239.514 225.6 239.2C 227.965 235.308 233.023 233.258 236.198 229.832C 242.506 223.025 249.392 210.951 250.4 201.6C 260.682 198.221 258.169 176.235 266.4 171.2L 266.4 167.2L 268 168C 268.075 161.179 275.06 155.658 273.6 149.6C 285.102 140.342 269.425 120.141 278.4 110.4C 276.579 107.242 275.766 104.446 276 100.8C 272.346 100.79 269.195 101.015 267.2 97.6C 263.138 97.6144 260.756 98.1312 257.6 100.8L 257.6 99.2C 254.03 101.55 251.765 106.275 247.2 106.942C 241.892 107.718 236.429 102.142 231.2 101.1C 221.893 99.244 213.141 94.98 204 93.0392C 196.582 91.4648 187.579 92.8 180 92.8C 172.541 92.8 153.954 90.168 153.6 100.8C 148.709 100.742 144.659 98.5784 143.2 93.6C 139.544 90.004 136.338 86.0624 136 80.8L 133.6 81.6C 132.914 79.1158 132.522 77.5099 130.4 76L 131.2 74.4C 128.18 72.488 126.581 69.0835 123.2 68z"/>
<path style="stroke:none; fill:#f9faa3" d="M 0 68.8L 0 71.2C 1.4375 71.2 1.21712 71.1886 2.4 70.4L 2.4 69.6C 1.21721 68.8114 1.43743 68.8 0 68.8z"/>
<path style="stroke:none; fill:#df8968" d="M 16 70.4L 18.4 69.6C 16.9774 68.8356 16.7829 68.987 16 70.4z"/>
<path style="stroke:none; fill:#fc8142" d="M 18.4 68.8L 18.4 69.6C 26.2023 69.6 34.7812 68.5861 42.4 70.4C 38.7826 66.2604 23.814 68.8 18.4 68.8z"/>
<path style="stroke:none; fill:#df8968" d="M 42.4 68.8L 42.4 69.6L 46.4 70.4C 46.7433 72.2438 47.1943 72.5095 48.8 73.6L 48.8 72C 54.3003 74.7923 61.9702 79.1621 68 80C 70.1409 83.7784 74.751 87.272 78.4 89.6C 73.1134 78.6747 53.9269 70.5036 42.4 68.8z"/>
<path style="stroke:none; fill:#f9faa3" d="M 399.2 68.8C 399.747 70.0641 399.844 70.2218 400.8 71.2C 400.253 69.9362 400.156 69.7782 399.2 68.8z"/>
<path style="stroke:none; fill:#fc8142" d="M 0 82.4L 3.2 82.4C 5.48012 76.9923 10.0501 72.394 16 71.2L 16 69.6C 10.197 70.2463 0.934808 76.3926 0 82.4z"/>
<path style="stroke:none; fill:#fc7d43" d="M 3.2 82.4C 2.01712 81.6112 2.2375 81.6 0.8 81.6C -2.15102 91.584 0 104.791 0 115.2L 1.6 115.2C 1.55848 113.178 1.37791 111.534 0.8 109.6C 2.89872 107.768 2.29214 104.849 3.76234 102.472C 5.87206 99.06 9.54296 97.3144 11.2 93.6C 16.0806 93.188 16.8145 88.5272 20.8864 87.0608C 29.0044 84.1384 44.3422 82.7784 52.7882 85.1472C 59.0826 86.912 62.8654 94.7264 69.6 96.8L 69.6 97.6C 68.1174 97.6 68.5199 97.36 68 98.4C 70.929 101.957 72.4243 107.438 72.8 112C 75.5374 111.978 78.1094 111.7 80.8 111.2C 80.8448 105.762 83.216 95.3496 80.0776 90.68C 77.2849 86.5232 71.3157 83.9456 68 80C 61.59 78.4536 55.0122 74.4468 48.8 72L 48.8 73.6C 46.6434 71.8028 45.9741 72.1038 46.4 70.4C 33.1472 68.1895 7.81563 65.9509 3.2 82.4z"/>
<path style="stroke:none; fill:#df8968" d="M 126.4 69.6C 127.21 71.5883 127.781 72.4781 129.6 73.6C 128.67 71.8267 127.931 70.8846 126.4 69.6z"/>
<path style="stroke:none; fill:#f9faa3" d="M 388.8 69.6L 388.8 100.8L 389.6 100.8C 389.6 91.8624 392.249 77.8192 388.8 69.6M 64.8 70.4L 64.8 71.2L 74.4 76.8C 73.0992 72.9678 68.5248 71.299 64.8 70.4M 136.8 72C 137.682 73.1653 138.034 73.5173 139.2 74.4C 138.481 72.7011 138.499 72.7195 136.8 72M 507.2 77.6C 509.206 76.1638 510.564 74.8061 512 72.8C 508.936 73.3264 508.09 74.6962 507.2 77.6z"/>
<path style="stroke:none; fill:#df8968" d="M 130.4 75.2C 131.378 76.1561 131.536 76.2532 132.8 76.8C 131.822 75.8438 131.664 75.7469 130.4 75.2z"/>
<path style="stroke:none; fill:#6d4214" d="M 395.2 76L 396 160.8C 396 168.557 394.919 185.68 402.4 190.4C 401.244 184.815 398.385 179.13 397.704 173.569C 395.931 159.094 397.6 143.39 397.6 128.8C 397.6 111.637 396 94.724 396 77.6L 396.8 77.6C 398.078 81.524 402.209 84.244 405.6 86.4C 403.638 82.3576 399.258 77.9771 395.2 76z"/>
<path style="stroke:none; fill:#f9faa3" d="M 405.066 76.5334C 405.022 76.5778 404.978 77.4222 405.334 77.0667C 405.378 77.0222 405.422 76.1777 405.066 76.5334z"/>
<path style="stroke:none; fill:#df8968" d="M 132.8 76.8C 132.977 79.2052 133.164 80.292 135.2 81.6C 134.633 79.6703 134.058 78.359 132.8 76.8z"/>
<path style="stroke:none; fill:#814101" d="M 396 77.6C 396 99.7448 397.6 121.78 397.6 144C 397.6 160.294 395.987 178.346 402.77 193.6C 407.804 204.918 420.743 208.589 426.4 218.4C 430.429 218.256 432.81 222.757 436.8 223.2C 452.234 224.915 468.682 223.2 484 223.2C 489.227 223.2 500.421 225.282 504.534 221.334C 507.872 218.128 505.879 212.052 506.666 208C 507.491 203.759 510.662 201.959 511.866 198.4C 513.342 194.042 512 187.015 512 182.4L 512 81.6L 511.2 81.6C 509.601 85.5296 507.097 91.0168 504.8 94.4C 504.063 103.791 494.264 107.59 487.2 101.6C 471.521 102.294 455.04 100.8 439.2 100.8C 433.442 100.8 424.89 99.0312 422.4 105.6C 414.153 103.796 414.654 95.7936 410.035 89.8632C 406.326 85.0992 400.177 82.0952 396 77.6z"/>
<path style="stroke:none; fill:#f9faa3" d="M 504.8 77.6C 503.359 80.6456 501.689 83.3184 499.2 85.6L 500 87.2C 498.062 88.7704 497.07 91.1496 496.8 93.6C 490.616 95.4784 484.058 93.6 477.6 93.6L 434.4 93.6L 434.4 94.4C 455.719 94.4 475.822 94.8904 496.8 97.6C 500.071 90.5928 503.426 84.3712 507.2 77.6L 504.8 77.6M 276 80.8L 276 81.6C 277.947 81.0792 278.626 80.672 280 79.2C 278.5 79.6377 277.396 80.088 276 80.8M 290.4 79.2L 291.2 80L 290.4 79.2M 408 79.2C 410.624 82.9248 413.875 86.176 417.6 88.8C 415.646 84.5872 412.357 80.9232 408 79.2M 289.6 80L 290.4 80.8L 289.6 80z"/>
<path style="stroke:none; fill:#df8968" d="M 276 88.8L 276 89.6C 280.582 88.6 283.965 85.4456 288 83.2L 286.4 92L 287.2 92C 288.536 88.34 289.293 84.684 289.6 80.8C 284.463 82.3224 280.617 86.1888 276 88.8z"/>
<path style="stroke:none; fill:#f9faa3" d="M 271.2 84.8L 276 82.4C 273.624 81.8416 272.463 82.7912 271.2 84.8z"/>
<path style="stroke:none; fill:#df8968" d="M 136 83.2C 136.701 86.3976 137.68 88.3872 140.8 89.6C 139.552 86.9816 138.235 85.0504 136 83.2z"/>
<path style="stroke:none; fill:#fc7d43" d="M 287.2 83.2L 271.833 92.7936C 268.174 94.7584 264.282 93.7824 261.6 97.6L 267.2 97.6C 268.557 101.458 272.461 100.798 276 100.8C 275.405 104.518 276.144 107.378 278.4 110.4C 273.23 113.21 276.37 130.555 277.6 135.2L 278.4 135.2C 278.419 128.112 277.707 118.122 279.579 111.336C 281.764 103.414 290.223 91.6512 287.2 83.2z"/>
<path style="stroke:none; fill:#6d4214" d="M 509.866 84.5336C 509.822 84.5776 509.778 85.4224 510.134 85.0664C 510.178 85.0224 510.222 84.1776 509.866 84.5336z"/>
<path style="stroke:none; fill:#df8968" d="M 29.6 84.8L 29.6 85.6L 51.2 85.6C 45.2729 83.1128 36.0197 84.8 29.6 84.8z"/>
<path style="stroke:none; fill:#fc8142" d="M 51.2 84.8L 51.2 85.6C 53.0838 86.2944 54.8247 86.8592 56.8 87.2C 55.0046 85.5072 53.6549 85.0656 51.2 84.8z"/>
<path style="stroke:none; fill:#df8968" d="M 26.9334 85.8664C 26.5778 86.2224 27.4222 86.1776 27.4666 86.1336C 27.8222 85.7776 26.9778 85.8224 26.9334 85.8664z"/>
<path style="stroke:none; fill:#f9faa3" d="M 145.6 85.6C 146.664 87.0024 147.398 87.736 148.8 88.8C 147.877 87.0008 147.399 86.5232 145.6 85.6M 171.2 85.6L 171.2 86.4L 204.8 86.4C 196.01 82.7112 180.766 85.6 171.2 85.6z"/>
<path style="stroke:none; fill:#fc8142" d="M 17.6 89.6C 20.1646 89.248 21.6473 88.9728 22.4 86.4C 19.9646 86.908 18.9474 87.5088 17.6 89.6z"/>
<path style="stroke:none; fill:#df8968" d="M 22.4 86.4L 22.4 88L 24 88L 24 86.4L 22.4 86.4z"/>
<path style="stroke:none; fill:#f9faa3" d="M 159.2 86.4C 161.168 88.5648 164.454 87.3176 167.2 87.2C 164.652 86.1376 161.933 86.5992 159.2 86.4M 168 86.4L 168 87.2L 170.4 87.2C 169.402 86.652 169.162 86.6008 168 86.4M 263.2 88.8L 268 87.2C 265.823 86.5536 264.566 87 263.2 88.8z"/>
<path style="stroke:none; fill:#df8968" d="M 55.2 87.2C 59.5292 93.3456 65.6528 97.4752 69.6 104L 70.4 104C 70.4 100.458 67.8601 98.0352 69.6 97.6L 69.6 96.8C 64.4037 94.2144 60.3805 89.6152 55.2 87.2z"/>
<path style="stroke:none; fill:#f9faa3" d="M 156.8 87.2L 156.8 88.8L 158.4 88.8L 158.4 87.2L 156.8 87.2M 86.4 88C 88.0568 96.9232 90.1384 113.408 80.8 118.4L 80.8 119.2C 90.9016 118.42 91.1456 94.2632 86.4 88M 417.6 88.8L 420 93.6L 420.8 93.6C 420.298 91.14 419.775 90.0584 417.6 88.8z"/>
<path style="stroke:none; fill:#df8968" d="M 18.1334 89.8664C 17.7778 90.2224 18.6222 90.1776 18.6666 90.1336C 19.0222 89.7776 18.1778 89.8224 18.1334 89.8664M 140.8 89.6C 141.221 91.6344 141.502 92.428 143.2 93.6C 143.611 95.9752 144.231 96.5072 146.4 97.6C 144.886 94.552 143.345 91.8832 140.8 89.6z"/>
<path style="stroke:none; fill:#f9faa3" d="M 260.534 89.8664C 260.178 90.2224 261.022 90.1776 261.066 90.1336C 261.422 89.7776 260.578 89.8224 260.534 89.8664M 150.134 90.6664C 149.778 91.0224 150.622 90.9776 150.666 90.9336C 151.022 90.5776 150.178 90.6224 150.134 90.6664z"/>
<path style="stroke:none; fill:#df8968" d="M 268 92.8L 268 93.6C 271.122 93.4984 272.732 93.1208 274.4 90.4L 268 92.8M 15.2 91.2L 15.2 92.8C 16.5081 92.364 16.364 92.508 16.8 91.2L 15.2 91.2z"/>
<path style="stroke:none; fill:#f9faa3" d="M 28 92L 28 92.8C 34.5392 92.5192 41.5354 92.7224 48 92C 42.3643 89.6352 33.9297 91.2504 28 92z"/>
<path style="stroke:none; fill:#6d4214" d="M 411.2 91.2C 412.801 97.5624 415.445 104.636 422.4 105.6C 421.064 104.027 418.916 103.811 417.606 102.146C 414.821 98.608 414.898 94.3488 411.2 91.2M 504.8 91.2L 504.8 94.4L 506.4 94.4L 506.4 91.2L 504.8 91.2z"/>
<path style="stroke:none; fill:#df8968" d="M 81.0664 92.5336C 81.0224 92.5776 80.9776 93.4224 81.3336 93.0664C 81.3776 93.0224 81.4224 92.1776 81.0664 92.5336M 172.8 92L 172.8 92.8L 202.4 92.8C 194.562 89.5112 181.319 92 172.8 92z"/>
<path style="stroke:none; fill:#f9faa3" d="M 236 94.4C 242.94 103.27 249.218 99.8816 256 92.8C 251.329 92.8064 249.595 97.1952 245.464 97.9848C 242.514 98.5496 238.762 95.3496 236 94.4z"/>
<path style="stroke:none; fill:#df8968" d="M 12.8 94.4C 14.064 93.8528 14.2218 93.756 15.2 92.8C 13.936 93.3472 13.7782 93.444 12.8 94.4z"/>
<path style="stroke:none; fill:#f9faa3" d="M 51.7334 93.0664C 51.3778 93.4224 52.2222 93.3776 52.2666 93.3336C 52.6222 92.9776 51.7778 93.0224 51.7334 93.0664z"/>
<path style="stroke:none; fill:#df8968" d="M 11.2 93.6C 10.4114 94.7832 10.4 94.5624 10.4 96C 11.4314 94.8456 11.5207 95.0128 11.2 93.6M 206.4 93.6L 206.4 94.4C 208.568 95.3192 210.454 95.7968 212.8 96C 210.77 94.384 208.974 93.864 206.4 93.6M 285.6 93.6L 284.8 98.4L 285.6 98.4C 285.91 96.5856 286.141 95.3304 285.6 93.6z"/>
<path style="stroke:none; fill:#f9faa3" d="M 21.6 96C 22.8641 95.4528 23.0217 95.356 24 94.4C 22.736 94.9472 22.5782 95.044 21.6 96M 421.6 94.4C 422.183 97.0656 423.736 96.5656 424.8 94.4L 421.6 94.4z"/>
<path style="stroke:none; fill:#df8968" d="M 80.8 95.2L 80.8 102.4L 81.6 102.4C 81.5984 99.8992 81.7704 97.512 80.8 95.2z"/>
<path style="stroke:none; fill:#6d4214" d="M 504 95.2C 502.914 98.1536 501.515 100.268 499.2 102.4L 499.2 103.2C 502.942 102.033 504.465 98.7864 505.6 95.2L 504 95.2z"/>
<path style="stroke:none; fill:#df8968" d="M 212.8 96L 212.8 96.8L 216 96.8C 214.795 96.2536 214.148 96.1392 212.8 96M 6.4 100C 7.80199 98.936 8.53584 98.2016 9.6 96.8C 7.80087 97.7232 7.32282 98.2008 6.4 100M 216.8 96.8C 217.851 98.0944 218.302 98.1544 220 98.4L 220 97.6L 216.8 96.8M 257.6 100.8C 259.309 99.5608 260.361 98.5088 261.6 96.8C 259.313 97.7472 258.374 98.4416 257.6 100.8z"/>
<path style="stroke:none; fill:#fc7d43" d="M 146.4 97.6C 147.565 101.11 150.28 100.788 153.6 100.8L 153.6 97.6L 146.4 97.6z"/>
<path style="stroke:none; fill:#df8968" d="M 220.8 98.4L 220.8 99.2C 225.318 100.127 230.063 100.819 234.4 102.4C 232.172 98.9632 224.757 98.5808 220.8 98.4z"/>
<path style="stroke:none; fill:#f9faa3" d="M 57.6 99.2L 57.6 100C 59.4261 101.924 59.459 103.196 58.4 105.6L 64.8 108C 63.5555 104.241 61.5275 100.425 57.6 99.2z"/>
<path style="stroke:none; fill:#df8968" d="M 0.8 109.6L 1.6 114.4L 2.4 114.4C 3.06958 109.102 4.05222 104.818 6.4 100C 2.08564 102.264 3.37966 106.199 0.8 109.6z"/>
<path style="stroke:none; fill:#6d4214" d="M 431.2 100L 431.2 100.8C 448.048 100.8 469.494 97.2944 485.6 102.4C 482.696 98.5856 475.537 100 471.2 100L 431.2 100z"/>
<path style="stroke:none; fill:#df8968" d="M 282.4 101.6L 282.4 104L 283.2 104L 284 101.6L 282.4 101.6z"/>
<path style="stroke:none; fill:#f9faa3" d="M 388.8 101.6C 390.84 110.17 389.6 120.019 389.6 128.8L 389.6 179.2L 391.2 179.2C 389.693 160.106 390.4 140.775 390.4 121.6C 390.4 116.812 392.527 104.857 388.8 101.6z"/>
<path style="stroke:none; fill:#6d4214" d="M 487.2 101.6C 490.008 105.196 495.024 104.799 499.2 104.8L 499.2 103.2C 495.023 103.189 491.27 102.44 487.2 101.6z"/>
<path style="stroke:none; fill:#df8968" d="M 248.8 107.2C 251.127 105.85 252.76 104.53 254.4 102.4C 251.771 103.524 250.163 104.676 248.8 107.2z"/>
<path style="stroke:none; fill:#f9faa3" d="M 12 103.2C 9.6532 105.928 8.90376 108.427 8.8 112L 9.6 112C 10.0026 108.925 12.3421 106.205 12 103.2z"/>
<path style="stroke:none; fill:#df8968" d="M 171.2 103.2L 171.2 104L 182.4 104C 179.026 102.585 174.833 103.2 171.2 103.2M 70.4 104L 71.2 107.2L 72 107.2C 71.5914 105.638 71.4134 105.234 70.4 104M 160.8 105.6L 160.8 106.4C 164.078 105.533 166.988 104.83 170.4 104.8C 167.132 103.429 163.885 103.995 160.8 105.6z"/>
<path style="stroke:none; fill:#060202" d="M 142.4 124.8C 140.146 122.33 135.248 121.216 136.498 126.404C 138.526 134.818 150.619 143.417 158.4 145.76C 165.026 147.756 184.298 148.769 190.326 145.253C 194.103 143.05 196.737 138.084 199.637 134.861C 203.489 130.58 209.645 120.383 206.378 114.484C 197.296 98.084 166.544 102.558 154.4 111.038C 148.626 115.07 142.635 116.882 142.4 124.8z"/>
<path style="stroke:none; fill:#df8968" d="M 184.8 104L 184.8 104.8C 188.338 104.802 191.698 105.158 195.2 105.6C 192.922 102.993 188.063 104 184.8 104M 80.8 104.8L 80.8 109.6L 81.6 109.6C 81.5624 107.798 81.4992 106.442 80.8 104.8z"/>
<path style="stroke:none; fill:#f9faa3" d="M 288.8 104.8C 285.809 116.91 284.98 129.182 284 141.6L 284.8 141.6C 287.912 133.865 286.229 124.187 287.367 116C 287.886 112.272 289.947 108.53 288.8 104.8z"/>
<path style="stroke:none; fill:#df8968" d="M 195.734 105.866C 195.378 106.222 196.222 106.178 196.266 106.134C 196.622 105.778 195.778 105.822 195.734 105.866M 158.4 106.4C 157.634 107.614 157.29 108.271 156.8 109.6C 158.104 108.388 158.53 108.116 158.4 106.4M 281.6 106.4C 276.937 114.975 282.598 127.549 276.8 135.2C 277.258 137.102 277.512 138.846 277.6 140.8L 278.4 140.8C 278.728 133.16 279.399 125.208 280.136 117.6C 280.482 114.03 282.55 109.815 281.6 106.4M 72.2666 108.534C 72.2222 108.578 72.1778 109.422 72.5334 109.066C 72.5777 109.022 72.6223 108.178 72.2666 108.534M 199.2 108.8C 200.178 109.756 200.336 109.853 201.6 110.4C 200.622 109.444 200.464 109.347 199.2 108.8M 250.4 108.8C 243.443 111 222.282 106.885 220 114.4C 229.755 109.078 245.708 109.637 256 113.6C 254.533 111.621 252.186 110.573 250.4 108.8z"/>
<path style="stroke:none; fill:#f9faa3" d="M 65.6 109.6L 65.6 112L 66.4 112C 66.199 110.838 66.1478 110.598 65.6 109.6z"/>
<path style="stroke:none; fill:#4ad34e" d="M 182.134 109.866C 181.778 110.222 182.622 110.178 182.666 110.134C 183.022 109.778 182.178 109.822 182.134 109.866z"/>
<path style="stroke:none; fill:#df8968" d="M 145.6 115.2L 145.6 116C 149.19 115.073 152.077 113.15 155.2 111.2C 151.638 110.336 148.354 113.138 145.6 115.2z"/>
<path style="stroke:none; fill:#6cf4f4" d="M 181.6 110.4L 181.6 132.8L 182.4 132.8C 182.4 125.49 181.5 117.541 183.2 110.4L 181.6 110.4z"/>
<path style="stroke:none; fill:#0df9f9" d="M 176.8 140.8C 179.817 140.8 184.027 141.539 186.785 140.114C 190.991 137.939 202.182 122.86 200.314 117.805C 198.697 113.43 187.059 106.838 183.222 111.682C 179.987 115.767 183.278 125.437 182.158 130.399C 181.268 134.34 177.754 136.822 176.8 140.8z"/>
<path style="stroke:none; fill:#fc7d43" d="M 201.6 110.4L 201.6 111.2C 207.296 114.166 207.661 117.308 207.2 123.2C 211.16 117.403 208.455 111.022 201.6 110.4z"/>
<path style="stroke:none; fill:#df8968" d="M 72.8 112L 72.8 112.8C 75.4445 112.798 78.1816 113.281 80 111.2C 77.58 111.65 75.2623 111.949 72.8 112z"/>
<path style="stroke:none; fill:#6cf4f4" d="M 164 111.2L 164.8 112.8L 165.6 112.8L 166.4 111.2L 164 111.2z"/>
<path style="stroke:none; fill:#060202" d="M 224 111.886C 212.675 116.471 207.138 131.942 217.747 140.204C 227.752 147.994 247.958 150.994 260 145.653C 271.634 140.491 272.362 125.607 263.168 117.904C 254.568 110.699 234.67 107.567 224 111.886z"/>
<path style="stroke:none; fill:#0df9f9" d="M 144.8 126.4C 146.981 134.247 155.637 139.222 163.2 140.8C 163.2 130.891 162.914 121.539 164.8 112C 156.773 114.713 151.281 121.545 144.8 126.4z"/>
<path style="stroke:none; fill:#f9faa3" d="M 8.8 112.8C 8.35056 114.241 8.14072 115.298 8 116.8L 8.8 116.8C 9.14864 115.159 9.29744 114.354 8.8 112.8z"/>
<path style="stroke:none; fill:#6cf4f4" d="M 160.8 113.6L 161.6 114.4L 160.8 113.6z"/>
<path style="stroke:none; fill:#df8968" d="M 0 115.2L 0.8 116L 0 115.2z"/>
<path style="stroke:none; fill:#f9faa3" d="M 67.2 115.2L 67.2 118.4L 70.4 118.4L 70.4 117.6L 67.2 115.2z"/>
<path style="stroke:none; fill:#df8968" d="M 207.2 115.2L 207.2 120L 208 120C 207.962 118.198 207.899 116.842 207.2 115.2z"/>
<path style="stroke:none; fill:#fc7d43" d="M 212.8 115.2L 213.6 120C 215.68 118.624 215.619 117.627 215.2 115.2L 212.8 115.2z"/>
<path style="stroke:none; fill:#6cf4f4" d="M 157.334 116.266C 156.978 116.622 157.822 116.578 157.866 116.534C 158.222 116.178 157.378 116.222 157.334 116.266M 162.4 116L 162.4 119.2L 163.2 119.2C 163.061 117.852 162.946 117.205 162.4 116z"/>
<path style="stroke:none; fill:#4ad34e" d="M 163.2 116L 164 116.8L 163.2 116z"/>
<path style="stroke:none; fill:#6cf4f4" d="M 200.8 116.8L 200.8 119.2L 201.6 119.2C 201.399 118.038 201.348 117.798 200.8 116.8z"/>
<path style="stroke:none; fill:#df8968" d="M 216 116.8L 216 118.4C 217.308 117.964 217.164 118.108 217.6 116.8L 216 116.8z"/>
<path style="stroke:none; fill:#4ad34e" d="M 226.934 117.066C 226.578 117.422 227.422 117.378 227.466 117.334C 227.822 116.978 226.978 117.022 226.934 117.066z"/>
<path style="stroke:none; fill:#2adb39" d="M 228 118.4L 230.4 117.6C 228.978 116.836 228.783 116.987 228 118.4z"/>
<path style="stroke:none; fill:#4ad34e" d="M 230.4 119.2L 233.6 117.6C 231.67 116.516 230.854 117.081 230.4 119.2z"/>
<path style="stroke:none; fill:#f9faa3" d="M 0 125.6L 4.8 125.6L 8.8 117.6C 5.40928 118.684 1.98807 122.662 0 125.6z"/>
<path style="stroke:none; fill:#2adb39" d="M 225.334 117.866C 224.978 118.222 225.822 118.178 225.866 118.134C 226.222 117.778 225.378 117.822 225.334 117.866z"/>
<path style="stroke:none; fill:#06f808" d="M 223.2 123.2L 220 124C 220.372 125.586 220.562 125.925 221.6 127.2C 219.27 129.484 218.801 131.571 221.6 133.6C 222.197 126.368 228.379 123.818 230.4 117.6C 226.475 117.975 223.607 118.865 223.2 123.2z"/>
<path style="stroke:none; fill:#fc7d43" d="M 263.2 117.6C 264.606 119.67 265.833 121.153 268 122.4C 266.886 119.813 265.806 118.679 263.2 117.6z"/>
<path style="stroke:none; fill:#f9faa3" d="M 70.4 118.4L 70.4 119.2L 77.6 119.2C 75.2882 118.23 72.9007 118.402 70.4 118.4z"/>
<path style="stroke:none; fill:#df8968" d="M 142.4 118.4L 141.6 121.6L 140.8 121.6C 134.451 114.338 136.614 129.965 136.8 132L 140.8 133.6C 139.738 131.087 136.917 128.343 136.706 125.619C 136.397 121.628 140.072 123.121 141.6 124.8L 142.4 124.8C 142.552 122.423 143.067 120.592 144 118.4L 142.4 118.4z"/>
<path style="stroke:none; fill:#4ad34e" d="M 224 118.4L 224.8 119.2L 224 118.4M 252.8 118.4L 252.8 121.6L 255.2 120.8C 254.317 119.634 253.966 119.283 252.8 118.4M 223.2 119.2L 224 120L 223.2 119.2z"/>
<path style="stroke:none; fill:#6d4214" d="M 464 135.2L 464.8 135.2C 464.811 117.824 482.999 120 496 120C 488.484 116.846 468.577 117.392 464.314 125.808C 463.006 128.391 463.992 132.37 464 135.2z"/>
<path style="stroke:none; fill:#df8968" d="M 212 120L 211.2 123.2C 212.602 122.136 213.336 121.402 214.4 120L 212 120z"/>
<path style="stroke:none; fill:#2adb39" d="M 218.4 132.8L 219.2 132.8C 219.546 130.418 220.18 129.154 221.6 127.2L 220 124L 223.2 123.2C 223.305 121.887 223.495 121.235 224 120C 218.583 122.653 218.403 127.339 218.4 132.8M 254.4 120.8C 255.754 121.65 256.832 122.016 258.4 122.4C 256.886 120.871 256.534 120.69 254.4 120.8z"/>
<path style="stroke:none; fill:#6d4214" d="M 410.4 131.2C 413.864 129.406 416.486 126.437 420 124.733C 427.61 121.043 435.8 121.6 444 121.6C 433.384 117.146 415.701 120.06 410.4 131.2z"/>
<path style="stroke:none; fill:#060202" d="M 475.2 120.558C 465.358 123.719 459.818 134.622 469.871 141.921C 474.492 145.275 486.638 145.314 491.997 143.549C 497.855 141.618 501.228 124.885 496.206 120.822C 492.967 118.202 479.034 119.328 475.2 120.558z"/>
<path style="stroke:none; fill:#6d4214" d="M 496.8 120C 497.758 125.162 499.26 134.314 496.657 139.128C 491.166 149.28 473.502 143.446 466.4 139.2C 468.734 146.324 490.171 148.146 495.62 143.882C 499.598 140.769 498.4 134.014 498.4 129.6C 498.4 126.488 499.29 122.175 496.8 120z"/>
<path style="stroke:none; fill:#df8968" d="M 121.6 120.8C 121.6 126.986 120.654 135.163 126.4 139.2C 125.078 133.754 123.694 125.791 121.6 120.8z"/>
<path style="stroke:none; fill:#06f808" d="M 253.6 120.8C 253.6 124.357 254.274 128.738 252.546 131.985C 251.451 134.042 246.706 136.509 247.137 138.989C 247.659 141.991 255.464 141.026 257.258 139.978C 267.466 134.009 262.361 123.61 253.6 120.8z"/>
<path style="stroke:none; fill:#df8968" d="M 206.4 121.6L 204.8 126.4C 206.654 124.786 207.499 123.898 206.4 121.6z"/>
<path style="stroke:none; fill:#4ad34e" d="M 226.666 122.134C 226.622 122.178 226.578 123.022 226.934 122.666C 226.978 122.622 227.022 121.778 226.666 122.134z"/>
<path style="stroke:none; fill:#2adb39" d="M 252.8 121.6C 252.8 125.415 252.698 129.04 252 132.8L 252.8 132.8C 253.825 129.334 254.219 124.982 252.8 121.6z"/>
<path style="stroke:none; fill:#4ad34e" d="M 258.4 121.6L 259.2 122.4L 258.4 121.6z"/>
<path style="stroke:none; fill:#060202" d="M 428 121.972C 415.736 124.179 401.764 135.036 417.631 144.197C 423.577 147.629 434.969 147.462 441.6 146.18C 449.594 144.634 457.621 131.279 450.146 124.559C 445.205 120.117 434.076 120.878 428 121.972z"/>
<path style="stroke:none; fill:#4ad34e" d="M 148 122.4L 148.8 123.2L 148 122.4z"/>
<path style="stroke:none; fill:#6cf4f4" d="M 198.666 122.934C 198.622 122.978 198.578 123.822 198.934 123.466C 198.978 123.422 199.022 122.578 198.666 122.934z"/>
<path style="stroke:none; fill:#4ad34e" d="M 220 122.4L 220.8 123.2L 220 122.4z"/>
<path style="stroke:none; fill:#6cf4f4" d="M 148 123.2L 148.8 124L 148 123.2z"/>
<path style="stroke:none; fill:#6d4214" d="M 448.8 123.2L 448.8 124C 453.853 128.209 451.938 135.759 451.2 141.6C 454.302 137.506 454.923 124.202 448.8 123.2z"/>
<path style="stroke:none; fill:#4ad34e" d="M 218.666 124.534C 218.622 124.578 218.578 125.422 218.934 125.066C 218.978 125.022 219.022 124.178 218.666 124.534z"/>
<path style="stroke:none; fill:#f9faa3" d="M 142.4 124.8L 143.2 125.6L 142.4 124.8z"/>
<path style="stroke:none; fill:#4ad34e" d="M 197.6 124.8L 198.4 125.6L 197.6 124.8M 224.8 124.8L 225.6 125.6L 224.8 124.8z"/>
<path style="stroke:none; fill:#f9faa3" d="M 143.2 125.6L 144 126.4L 143.2 125.6z"/>
<path style="stroke:none; fill:#6cf4f4" d="M 196.8 125.6L 196.8 128L 197.6 128C 197.399 126.838 197.348 126.598 196.8 125.6z"/>
<path style="stroke:none; fill:#4ad34e" d="M 224 125.6L 224.8 126.4L 224 125.6z"/>
<path style="stroke:none; fill:#95f8f8" d="M 489.6 125.6C 489.6 129.92 489.806 134.174 488.8 138.4C 493.531 136.736 492 129.754 492 125.6L 489.6 125.6z"/>
<path style="stroke:none; fill:#6cf4f4" d="M 144.266 126.934C 144.222 126.978 144.178 127.822 144.534 127.466C 144.578 127.422 144.622 126.578 144.266 126.934z"/>
<path style="stroke:none; fill:#df8968" d="M 204.266 126.934C 204.222 126.978 204.178 127.822 204.534 127.466C 204.578 127.422 204.622 126.578 204.266 126.934M 212 126.4L 212 134.4L 212.8 134.4C 212.8 131.669 213.062 128.93 212 126.4z"/>
<path style="stroke:none; fill:#2adb39" d="M 222.4 126.4L 222.4 128.8L 223.2 128.8L 224 126.4L 222.4 126.4z"/>
<path style="stroke:none; fill:#95f8f8" d="M 474.4 127.2C 476.25 130.527 476 133.883 476 137.6L 475.2 137.6C 473.58 134.55 472.192 132.335 472 128.8L 471.2 128.8C 469.856 133.699 471.887 137.108 476.8 138.4L 476.8 126.4L 474.4 127.2z"/>
<path style="stroke:none; fill:#2adb39" d="M 262.4 127.2C 262.664 129.693 262.755 131.913 262.4 134.4L 263.2 134.4C 263.999 131.617 264.057 129.628 262.4 127.2z"/>
<path style="stroke:none; fill:#95f8f8" d="M 439.2 127.2L 439.2 140.8C 447.39 137.794 449.553 128.111 439.2 127.2z"/>
<path style="stroke:none; fill:#df8968" d="M 203.2 128L 202.4 132L 203.2 132C 203.674 130.276 203.819 129.635 203.2 128M 269.6 128L 269.6 135.2L 270.4 135.2C 270.398 132.699 270.57 130.312 269.6 128z"/>
<path style="stroke:none; fill:#fc7d43" d="M 270.4 128L 270.4 135.2L 271.2 135.2C 271.198 132.699 271.37 130.312 270.4 128z"/>
<path style="stroke:none; fill:#95f8f8" d="M 426.4 128L 419.2 131.2C 419.578 132.333 419.851 132.651 420.8 133.6L 421.6 133.6C 424.034 132.151 427.522 131.309 426.4 128z"/>
<path style="stroke:none; fill:#6cf4f4" d="M 475.2 137.6L 476 137.6L 476 128C 469.998 129.002 472.648 134.173 475.2 137.6z"/>
<path style="stroke:none; fill:#4ad34e" d="M 222.4 128.8L 223.2 129.6L 222.4 128.8z"/>
<path style="stroke:none; fill:#6cf4f4" d="M 195.2 129.6L 196 130.4L 195.2 129.6z"/>
<path style="stroke:none; fill:#2adb39" d="M 221.6 129.6L 221.6 133.6C 220.418 132.811 220.638 132.8 219.2 132.8L 219.2 133.6C 220.383 134.389 220.162 134.4 221.6 134.4C 222.15 132.464 222.338 131.458 221.6 129.6z"/>
<path style="stroke:none; fill:#6cf4f4" d="M 194.4 130.4L 195.2 131.2L 194.4 130.4M 193.6 131.2L 194.4 132L 193.6 131.2M 423.2 136.8L 424 136.8C 424.539 138.638 424.772 139.019 426.4 140C 426.402 136.971 426.497 134.155 427.2 131.2C 424.902 131.702 422.178 132.174 420.99 134.5C 419.902 136.63 421.411 138.692 423.2 136.8M 191.2 134.4C 192.366 133.518 192.718 133.166 193.6 132C 191.901 132.719 191.919 132.701 191.2 134.4z"/>
<path style="stroke:none; fill:#95f8f8" d="M 426.4 132L 426.4 140C 425.114 138.84 424.749 138.359 424 136.8L 423.2 136.8C 421.422 137.577 420.849 137.095 419.2 136C 419.937 139.752 423.73 140.452 427.2 140.8C 427.2 137.84 427.552 134.746 426.4 132z"/>
<path style="stroke:none; fill:#6cf4f4" d="M 441.6 132C 441.942 134.116 442.257 134.769 444 136C 444.45 134.559 444.659 133.502 444.8 132L 441.6 132z"/>
<path style="stroke:none; fill:#2adb39" d="M 251.466 133.334C 251.422 133.378 251.378 134.222 251.734 133.866C 251.778 133.822 251.822 132.978 251.466 133.334z"/>
<path style="stroke:none; fill:#4ad34e" d="M 221.6 133.6C 221.625 135.066 221.537 134.847 222.4 136C 222.199 134.838 222.148 134.598 221.6 133.6z"/>
<path style="stroke:none; fill:#6cf4f4" d="M 190.4 134.4L 191.2 135.2L 190.4 134.4z"/>
<path style="stroke:none; fill:#2adb39" d="M 248.8 136C 250.064 135.453 250.222 135.356 251.2 134.4C 249.936 134.947 249.778 135.044 248.8 136z"/>
<path style="stroke:none; fill:#4ad34e" d="M 261.866 134.934C 261.822 134.978 261.778 135.822 262.134 135.466C 262.178 135.422 262.222 134.578 261.866 134.934z"/>
<path style="stroke:none; fill:#df8968" d="M 198.4 135.2C 195.607 138.476 193.414 143.085 189.568 145.253C 178.118 151.706 160.49 144.158 149.6 141.6C 156.541 149.915 179.678 149.254 189.6 146.823C 194.641 145.589 199.304 140.631 198.4 135.2M 143.466 136.534C 143.422 136.578 143.378 137.422 143.734 137.066C 143.778 137.022 143.822 136.178 143.466 136.534z"/>
<path style="stroke:none; fill:#4ad34e" d="M 260.8 136L 257.6 140C 259.614 139.002 260.866 138.316 260.8 136z"/>
<path style="stroke:none; fill:#df8968" d="M 268.8 136C 265.333 141.455 261.22 146.183 254.4 146.4L 254.4 147.2C 262.494 147.177 266.851 143.119 270.4 136L 268.8 136M 144 137.6L 144 139.2L 145.6 139.2C 145.164 137.892 145.308 138.036 144 137.6z"/>
<path style="stroke:none; fill:#fc7d43" d="M 214.4 137.6C 215.568 141.484 218.61 142.545 222.4 143.2L 222.4 142.4C 219.336 141.174 217.162 139.24 214.4 137.6z"/>
<path style="stroke:none; fill:#2adb39" d="M 245.6 138.4L 244.8 140.8L 247.2 140.8C 246.647 139.689 246.413 139.311 245.6 138.4z"/>
<path style="stroke:none; fill:#f9faa3" d="M 118.4 139.2L 117.6 140.8L 119.2 140.8C 119.2 139.318 119.44 139.72 118.4 139.2z"/>
<path style="stroke:none; fill:#6cf4f4" d="M 158.934 139.466C 158.578 139.822 159.422 139.778 159.466 139.734C 159.822 139.378 158.978 139.422 158.934 139.466M 176 139.2L 175.2 140.8L 176.8 140.8C 176.8 139.318 177.04 139.72 176 139.2M 187.2 139.2L 188 140L 187.2 139.2z"/>
<path style="stroke:none; fill:#4ad34e" d="M 239.2 140.8L 239.2 141.6L 252.8 141.6L 252.8 140.8C 249.582 140.8 244.962 141.751 245.6 139.2C 243.444 139.876 241.445 140.526 239.2 140.8z"/>
<path style="stroke:none; fill:#df8968" d="M 147.734 140.266C 147.378 140.622 148.222 140.578 148.266 140.534C 148.622 140.178 147.778 140.222 147.734 140.266M 217.334 140.266C 216.978 140.622 217.822 140.578 217.866 140.534C 218.222 140.178 217.378 140.222 217.334 140.266z"/>
<path style="stroke:none; fill:#6d4214" d="M 412 140C 412.978 140.956 413.136 141.053 414.4 141.6C 413.422 140.644 413.264 140.547 412 140z"/>
<path style="stroke:none; fill:#df8968" d="M 276.8 140.8L 276.8 144L 277.6 144C 277.461 142.652 277.346 142.005 276.8 140.8M 218.934 142.666C 218.578 143.022 219.422 142.978 219.466 142.934C 219.822 142.578 218.978 142.622 218.934 142.666z"/>
<path style="stroke:none; fill:#6d4214" d="M 415.2 142.4C 415.2 143.838 415.211 143.617 416 144.8L 412.8 144.8L 412.8 145.6C 422.368 146.81 442.004 153.163 448.8 143.2C 437.313 146.571 426.3 148.743 415.2 142.4z"/>
<path style="stroke:none; fill:#df8968" d="M 222.134 143.466C 221.778 143.822 222.622 143.778 222.666 143.734C 223.022 143.378 222.178 143.422 222.134 143.466z"/>
<path style="stroke:none; fill:#f9faa3" d="M 283.2 143.2L 283.2 146.4L 284 146.4C 284.037 144.745 284.04 144.588 283.2 143.2z"/>
<path style="stroke:none; fill:#df8968" d="M 276 144C 275.515 146.242 275.054 147.835 273.6 149.6L 273.6 150.4C 274.418 151.627 274.244 151.522 275.2 152C 276.101 149.338 276.966 146.694 276 144M 225.334 145.066C 224.978 145.422 225.822 145.378 225.866 145.334C 226.222 144.978 225.378 145.022 225.334 145.066M 226.4 145.6C 230.262 150.674 245.251 148 251.2 148L 251.2 147.2C 242.797 147.2 234.558 147.758 226.4 145.6M 128.8 147.2C 129.209 151.884 131.359 156.132 131.861 160.8C 133.262 173.844 132 187.678 132 200.8L 132.8 200.8C 132.8 183.229 134.6 164.458 131.2 147.2L 128.8 147.2z"/>
<path style="stroke:none; fill:#fc7d43" d="M 248 148L 248 150.4L 252.8 150.4C 251.492 148.364 250.406 148.177 248 148z"/>
<path style="stroke:none; fill:#f9faa3" d="M 281.6 149.6L 281.6 152L 282.4 152L 283.2 149.6L 281.6 149.6z"/>
<path style="stroke:none; fill:#df8968" d="M 196 154.4L 196 155.2C 201.437 154.514 203.865 155.458 208.8 157.6C 205.363 153.264 201.107 153.184 196 154.4z"/>
<path style="stroke:none; fill:#060202" d="M 186.4 212L 187.2 212C 194.018 218.963 217.307 216.671 223.258 209.453C 225.253 207.032 229.697 194.436 223.928 193.537C 221.258 193.121 218.698 205.85 215.188 208.085C 209.046 211.997 198.849 208.805 192 208.8C 192.335 201.464 194.338 186.356 199.679 181.054C 205.13 175.644 216.467 182.205 217.51 170.4C 218.613 157.907 197.692 148.25 191.331 161.6C 189.201 166.072 191.126 171.327 191.185 176C 191.255 181.577 188.502 185.275 187.031 190.4C 184.872 197.926 187.823 205.821 179.128 210.381C 172.098 214.068 161.24 202.99 159.547 196.8C 158.635 193.467 160.411 189.676 159.382 186.519C 158.628 184.209 155.778 183.87 154.422 185.858C 144.019 201.12 175.034 229.175 186.4 212z"/>
<path style="stroke:none; fill:#df8968" d="M 272 156C 269.44 158.661 268.244 161.926 268 165.6L 268.8 165.6C 269.906 162.514 272.379 159.291 272 156M 193.6 156.8C 192.834 158.014 192.49 158.671 192 160C 193.304 158.788 193.73 158.516 193.6 156.8z"/>
<path style="stroke:none; fill:#6d4214" d="M 452 183.2C 453.191 191.546 451.559 200.431 451.2 208.8L 452 208.8C 454.643 200.442 453.6 191.067 453.6 182.4C 444.165 181.35 437.434 163.525 447.235 158.426C 450.208 156.878 453.802 158.514 456.8 159.2C 454.522 156.208 446.034 155.19 443.626 158.654C 438.912 165.44 441.614 184.561 452 183.2z"/>
<path style="stroke:none; fill:#f9faa3" d="M 124.8 157.6L 124.8 160.8L 125.6 160.8C 125.461 159.452 125.346 158.805 124.8 157.6z"/>
<path style="stroke:none; fill:#060202" d="M 453.6 182.4C 453.6 191.754 456.98 209.431 444.8 212.465C 433.77 215.212 430.335 204.718 424.822 197.87C 423.441 196.154 421.351 196.533 420.483 198.522C 418.346 203.422 423.494 208.442 426.398 211.699C 435.109 221.475 449.833 220.987 457.6 210.4L 458.4 210.4C 464.686 220.84 475.432 221.891 485.442 214.937C 490.146 211.67 496.985 202.293 492.778 196.27C 491.485 194.418 489.326 195.056 488.482 196.922C 485.631 203.231 479.714 218.709 468.937 212.777C 458.796 207.196 468.479 189.217 459.2 186.4L 459.2 182.4C 477.901 181.147 462.638 157.181 449.601 157.679C 437.933 158.125 441.959 181.762 453.6 182.4z"/>
<path style="stroke:none; fill:#6d4214" d="M 457.6 160L 457.6 160.8C 461.622 162.886 464.475 166.024 467.2 169.6L 468 169.6C 467.126 163.979 462.979 160.93 457.6 160z"/>
<path style="stroke:none; fill:#f9faa3" d="M 125.866 161.334C 125.822 161.378 125.778 162.222 126.134 161.866C 126.178 161.822 126.222 160.978 125.866 161.334z"/>
<path style="stroke:none; fill:#df8968" d="M 190.666 161.334C 190.622 161.378 190.578 162.222 190.934 161.866C 190.978 161.822 191.022 160.978 190.666 161.334M 213.6 161.6L 216.792 166.404C 222.969 179.808 203.326 176.585 199.104 181.054C 194.678 185.741 194.495 194.712 193.6 200.8L 194.4 200.8C 197.259 194.858 195.534 187.938 200.035 182.518C 203.522 178.321 208.95 181.222 213.339 179.018C 220.116 175.614 220.209 164.786 213.6 161.6M 188.8 163.2L 188 166.4C 189.881 166.4 189.548 166.922 189.6 168.8L 190.4 168.8L 190.4 163.2L 188.8 163.2z"/>
<path style="stroke:none; fill:#f9faa3" d="M 125.6 165.6C 125.6 179.725 124.106 194.772 125.703 208.8C 126.203 213.19 128.411 217.138 128.8 221.6L 129.6 221.6C 129.445 214.32 126.592 207.371 126.412 200C 126.168 190.066 129.436 174.742 125.6 165.6M 274.4 165.6C 273.51 169.162 271.766 172.354 271.2 176C 274.261 173.363 276.025 169.531 274.4 165.6z"/>
<path style="stroke:none; fill:#df8968" d="M 266.666 167.734C 266.622 167.778 266.578 168.622 266.934 168.266C 266.978 168.222 267.022 167.378 266.666 167.734M 190.4 171.2C 190.4 176.241 189.526 180.665 188.8 185.6L 189.6 185.6C 191.209 181.304 192.224 175.547 190.4 171.2M 264 171.2C 262.795 177.412 259.558 182.809 258.4 188.8L 259.2 188.8C 261.94 182.999 264.509 177.622 265.6 171.2L 264 171.2z"/>
<path style="stroke:none; fill:#6d4214" d="M 468 172L 468 179.2L 468.8 179.2C 468.798 176.699 468.97 174.312 468 172z"/>
<path style="stroke:none; fill:#df8968" d="M 152.8 200L 153.6 200L 153.6 193.6C 153.601 191.822 154.572 180.884 158.582 185.902C 160.757 188.622 158.645 194.303 159.547 197.6C 161.613 205.154 174.426 216.126 181.6 208.8C 174.022 211.164 169.342 208.778 165.6 201.6C 157.238 199.185 163.612 190.08 160.766 184.952C 155.533 175.523 152.8 189.054 152.8 192.8L 152.8 200z"/>
<path style="stroke:none; fill:#6d4214" d="M 459.2 182.4L 459.2 186.4C 467.53 189.51 460.478 203.3 464.978 209.6C 466.986 212.412 474.015 216.727 475.2 211.2C 456.914 214.187 471.71 187.512 460 185.6L 460.8 182.4L 459.2 182.4z"/>
<path style="stroke:none; fill:#df8968" d="M 188 185.6L 187.2 188.8L 188 188.8C 188.247 187.394 188.325 186.927 188 185.6z"/>
<path style="stroke:none; fill:#f9faa3" d="M 267.2 185.6C 263.71 192.234 255.137 203.699 256 211.2C 256.865 210.034 257.149 209.402 257.6 208L 260 208.8L 262.4 205.6C 257.83 199.425 269.524 191.521 267.2 185.6z"/>
<path style="stroke:none; fill:#df8968" d="M 257.866 189.334C 257.822 189.378 257.778 190.222 258.134 189.866C 258.178 189.822 258.222 188.978 257.866 189.334M 186.4 189.6C 185.114 193.95 185.6 198.686 185.6 203.2L 186.4 203.2C 186.4 198.929 187.378 193.669 186.4 189.6M 220.8 194.4C 222.586 193.766 223.717 193.538 225.6 193.6C 224.193 191.157 221.388 191.657 220.8 194.4M 255.466 194.134C 255.422 194.178 255.378 195.022 255.734 194.666C 255.778 194.622 255.822 193.778 255.466 194.134z"/>
<path style="stroke:none; fill:#f9faa3" d="M 396 194.4C 395.845 197.87 397.057 199.802 400 201.6C 399.268 198.755 397.946 196.597 396 194.4z"/>
<path style="stroke:none; fill:#6d4214" d="M 492 194.4C 495.062 201.628 491.742 205.276 489.6 212C 493.427 208.542 499.813 196.993 492 194.4z"/>
<path style="stroke:none; fill:#df8968" d="M 254.666 195.734C 254.622 195.778 254.578 196.622 254.934 196.266C 254.978 196.222 255.022 195.378 254.666 195.734z"/>
<path style="stroke:none; fill:#6d4214" d="M 425.6 211.2C 424.132 207.994 420.705 205.198 420.27 201.601C 420.045 199.741 421.262 196.219 423.765 197.537C 427.79 199.655 430.693 208.025 435.2 211.2C 433.902 207.125 426.17 194.774 421.646 195.334C 412.576 196.458 422.229 209.107 425.6 211.2z"/>
<path style="stroke:none; fill:#df8968" d="M 226.4 196C 226.399 202.177 224.705 205.637 222.4 211.2C 227.817 207.878 228.789 201.639 226.4 196M 220 197.6L 220 201.6L 220.8 201.6C 220.73 200.029 220.623 199.015 220 197.6M 253.866 198.134C 253.822 198.178 253.778 199.022 254.134 198.666C 254.178 198.622 254.222 197.778 253.866 198.134z"/>
<path style="stroke:none; fill:#6d4214" d="M 511.2 199.2C 505.779 204.11 506.4 210.821 506.4 217.6L 507.2 217.6C 507.2 211.916 512.637 203.629 511.2 199.2z"/>
<path style="stroke:none; fill:#df8968" d="M 192.8 201.6L 192.8 204.8L 193.6 204.8C 193.461 203.452 193.346 202.805 192.8 201.6M 250.4 201.6L 250.4 204.8L 251.2 204.8L 252.8 201.6L 250.4 201.6z"/>
<path style="stroke:none; fill:#f9faa3" d="M 400.8 202.4C 401.549 203.959 401.914 204.44 403.2 205.6C 402.451 204.041 402.086 203.56 400.8 202.4z"/>
<path style="stroke:none; fill:#df8968" d="M 155.2 203.2C 157.03 207.15 160.886 213.478 165.6 213.6C 162.58 209.79 159.172 206.005 155.2 203.2M 218.4 203.2L 217.6 206.4L 218.4 206.4L 220 203.2L 218.4 203.2M 249.866 205.334C 249.822 205.378 249.778 206.222 250.134 205.866C 250.178 205.822 250.222 204.978 249.866 205.334z"/>
<path style="stroke:none; fill:#6d4214" d="M 410.4 204.8C 414.282 210.312 419.88 215.522 426.4 217.6C 423.738 213.352 415.162 206.314 410.4 204.8z"/>
<path style="stroke:none; fill:#df8968" d="M 132.8 205.6C 133.179 210.241 134.987 214.542 135.2 219.2L 136 219.2C 135.989 215.022 136.386 208.329 132.8 205.6z"/>
<path style="stroke:none; fill:#f9faa3" d="M 403.2 205.6C 403.949 207.158 404.314 207.64 405.6 208.8C 404.851 207.241 404.486 206.76 403.2 205.6z"/>
<path style="stroke:none; fill:#6d4214" d="M 482.4 205.6C 481.187 208.982 478.998 210.207 476 212L 476 212.8C 480.315 211.554 483.462 209.623 485.6 205.6L 482.4 205.6z"/>
<path style="stroke:none; fill:#df8968" d="M 181.6 206.4L 181.6 208C 182.908 207.564 182.764 207.708 183.2 206.4L 181.6 206.4M 248.8 206.4L 248 209.6L 248.8 209.6C 249.047 208.194 249.125 207.727 248.8 206.4M 192 208L 192 208.8L 198.4 208.8C 196.31 207.922 194.269 208.006 192 208M 202.4 208.8L 202.4 209.6C 206.672 209.6 211.083 210.017 215.2 208.8C 211.353 207.876 206.438 208.8 202.4 208.8M 199.2 208.8L 200 209.6L 199.2 208.8z"/>
<path style="stroke:none; fill:#f9faa3" d="M 407.2 210.4C 408.377 213.795 410.37 216.032 413.6 217.6C 412.14 214.516 409.89 212.469 407.2 210.4z"/>
<path style="stroke:none; fill:#6d4214" d="M 457.6 210.4C 455.782 212.191 454.061 213.79 452.8 216C 454.978 215.097 456.889 214.054 459.2 213.6C 458.791 212.038 458.614 211.634 457.6 210.4z"/>
<path style="stroke:none; fill:#df8968" d="M 246.4 211.2L 246.4 213.6L 247.2 213.6C 246.999 212.438 246.948 212.198 246.4 211.2M 186.4 212C 185.321 213.414 184.702 214.386 184 216C 185.634 215.284 187.062 214.771 188.8 214.4C 187.918 213.234 187.566 212.882 186.4 212z"/>
<path style="stroke:none; fill:#6d4214" d="M 435.2 212L 435.2 212.8L 446.4 212.8C 443.027 211.385 438.833 212 435.2 212M 428 213.6C 428.386 215.491 428.509 215.614 430.4 216C 430.4 214.562 430.389 214.783 429.6 213.6L 428 213.6z"/>
<path style="stroke:none; fill:#df8968" d="M 188.8 214.4L 188.8 215.2L 192.8 215.2C 191.385 214.577 190.371 214.47 188.8 214.4M 244.8 214.4L 244.8 216.8L 245.6 216.8C 245.399 215.638 245.348 215.398 244.8 214.4M 166.4 215.2L 166.4 216C 171.126 218.274 176.459 217.6 181.6 217.6C 177.313 215.801 171.108 216.166 166.4 215.2M 197.6 215.2L 197.6 216L 215.2 216C 210.238 213.918 202.962 215.2 197.6 215.2z"/>
<path style="stroke:none; fill:#6d4214" d="M 483.466 215.734C 483.422 215.778 483.378 216.622 483.734 216.266C 483.778 216.222 483.822 215.378 483.466 215.734z"/>
<path style="stroke:none; fill:#df8968" d="M 243.466 218.134C 243.422 218.178 243.378 219.022 243.734 218.666C 243.778 218.622 243.822 217.778 243.466 218.134z"/>
<path style="stroke:none; fill:#f9faa3" d="M 414.934 217.866C 414.578 218.222 415.422 218.178 415.466 218.134C 415.822 217.778 414.978 217.822 414.934 217.866z"/>
<path style="stroke:none; fill:#6d4214" d="M 427.466 218.134C 427.422 218.178 427.378 219.022 427.734 218.666C 427.778 218.622 427.822 217.778 427.466 218.134M 435.2 218.4L 435.2 219.2L 448 219.2C 444.221 217.614 439.272 218.4 435.2 218.4z"/>
<path style="stroke:none; fill:#f9faa3" d="M 416 219.2L 416 220C 417.862 220.946 419.609 221.778 421.6 222.4L 421.6 221.6C 419.704 220.435 418.163 219.694 416 219.2z"/>
<path style="stroke:none; fill:#6d4214" d="M 429.6 219.2C 430.578 220.156 430.736 220.253 432 220.8C 431.022 219.844 430.864 219.747 429.6 219.2M 464.8 219.2L 464.8 220L 476 220C 472.626 218.585 468.433 219.2 464.8 219.2M 511.2 220.8C 510.014 223.851 508.051 226.442 507.2 229.6C 510.583 227.718 512.709 224.678 511.2 220.8z"/>
<path style="stroke:none; fill:#f9faa3" d="M 129.6 221.6L 128.8 222.4L 132 231.2L 132.8 231.2C 132.341 227.788 131.807 224.293 129.6 221.6z"/>
<path style="stroke:none; fill:#df8968" d="M 137.066 222.134C 137.022 222.178 136.978 223.022 137.334 222.666C 137.378 222.622 137.422 221.778 137.066 222.134z"/>
<path style="stroke:none; fill:#f9faa3" d="M 248.8 221.6L 248 224.8L 248.8 224.8C 249.172 223.255 249.259 223.047 248.8 221.6z"/>
<path style="stroke:none; fill:#6d4214" d="M 479.2 223.2L 479.2 224C 487.064 224 497.612 225.859 504.8 222.4C 497.668 220.896 486.863 223.2 479.2 223.2M 436.8 223.2L 436.8 224L 468.8 224C 460.39 220.471 445.947 223.2 436.8 223.2z"/>
<path style="stroke:none; fill:#df8968" d="M 239.2 224L 236.8 229.6C 238.753 227.931 239.763 226.354 240.8 224L 239.2 224z"/>
<path style="stroke:none; fill:#814101" d="M 511.2 224.8C 510.161 226.955 509.066 228.084 507.2 229.6L 507.2 228C 487.868 234.527 460.405 231.145 440.003 230.385C 435.674 230.224 432.457 228.417 428 228.8C 426.998 230.402 426.206 231.814 425.6 233.6L 423.2 232C 414.9 251.003 409.843 279.508 418.51 299.2C 420.858 304.535 421.669 311.35 427.2 314.4C 425.723 322.042 431.528 329.804 435.188 336C 438.045 340.834 438.772 346.465 441.804 351.201C 447.202 359.631 453.559 364.372 456.8 374.4L 459.2 373.6C 459.55 378.864 462.668 383.06 464 388C 469.01 390.822 470.636 397.643 473.841 402.193C 475.586 404.67 478.291 405.808 479.2 408.8C 488.961 411.685 501.826 409.6 512 409.6L 512 279.2L 512 241.6C 512 236.464 513.198 229.561 511.2 224.8z"/>
<path style="stroke:none; fill:#6d4214" d="M 424 233.6C 426.012 232.363 427.022 230.946 428 228.8C 430.007 228.473 430.22 228.217 431.2 226.4C 427.15 227.053 425.052 229.742 424 233.6z"/>
<path style="stroke:none; fill:#df8968" d="M 138.666 227.734C 138.622 227.778 138.578 228.622 138.934 228.266C 138.978 228.222 139.022 227.378 138.666 227.734z"/>
<path style="stroke:none; fill:#f9faa3" d="M 416 229.6L 416 231.2C 417.308 230.764 417.164 230.908 417.6 229.6L 416 229.6z"/>
<path style="stroke:none; fill:#6d4214" d="M 435.2 229.6L 435.2 230.4L 502.4 230.4C 496.673 227.997 487.795 229.6 481.6 229.6L 435.2 229.6z"/>
<path style="stroke:none; fill:#df8968" d="M 140 230.4C 142.107 233.698 144.374 236.052 148 237.6C 145.802 234.611 143.472 231.826 140 230.4M 230.4 236C 233.005 234.478 234.672 233.12 236 230.4C 233.199 231.719 231.719 233.199 230.4 236z"/>
<path style="stroke:none; fill:#f9faa3" d="M 132.8 231.2C 133.347 232.464 133.444 232.622 134.4 233.6C 133.853 232.336 133.756 232.178 132.8 231.2M 414.666 233.334C 414.622 233.378 414.578 234.222 414.934 233.866C 414.978 233.822 415.022 232.978 414.666 233.334M 134.4 233.6L 133.6 234.4C 134.76 235.686 135.241 236.051 136.8 236.8C 136.051 235.241 135.686 234.76 134.4 233.6z"/>
<path style="stroke:none; fill:#6d4214" d="M 420.8 236C 421.966 235.117 422.318 234.766 423.2 233.6C 421.501 234.319 421.519 234.301 420.8 236z"/>
<path style="stroke:none; fill:#f9faa3" d="M 413.866 234.934C 413.822 234.978 413.778 235.822 414.134 235.466C 414.178 235.422 414.222 234.578 413.866 234.934z"/>
<path style="stroke:none; fill:#df8968" d="M 225.6 239.2C 222.145 238.822 219.823 240.646 217.6 243.2C 222.468 242.044 226.354 239.673 230.4 236.8C 227.793 235.79 226.598 236.713 225.6 239.2z"/>
<path style="stroke:none; fill:#f9faa3" d="M 412.8 236L 412 241.6L 412.8 241.6C 413.294 239.486 413.592 238.018 412.8 236M 136.8 236.8C 137.92 240.114 140.894 241.823 144 243.2C 141.99 240.47 139.67 238.595 136.8 236.8z"/>
<path style="stroke:none; fill:#df8968" d="M 148 237.6C 149.517 239.345 150.607 240.055 152.8 240.8C 151.383 238.711 150.495 238.011 148 237.6z"/>
<path style="stroke:none; fill:#f9faa3" d="M 317.6 247.2C 326.804 243.13 333.042 242.4 343.2 242.4C 336.758 237.519 321.962 240.732 317.6 247.2M 229.6 243.2C 233.332 258.875 230.4 278.29 230.4 294.4C 230.4 302.709 230.162 312.94 235.2 320C 235.835 315.029 234.25 311.803 232.8 307.2L 236.8 306.4L 235.2 302.4L 231.2 301.6L 231.2 262.4C 231.2 255.325 230.101 247.962 233.6 241.6L 229.6 243.2M 344 241.6C 346.278 244.208 350.573 242.874 353.588 244.826C 358.179 247.797 361.093 252.825 365.6 256C 362.37 246.021 352.679 243.666 344 241.6M 411.2 241.6L 410.4 245.6C 411.903 244.302 411.933 243.44 411.2 241.6z"/>
<path style="stroke:none; fill:#060202" d="M 308 264C 291.786 248.827 259.538 252.74 250.994 275.2C 249.451 279.255 250.244 285.316 250.431 289.6C 251.469 313.295 268.196 327.616 284 343.229C 288.49 347.664 292.185 354.295 296.906 358.13C 301.233 361.646 302.634 355.435 305.646 353.486C 308.422 351.69 312.774 351.493 316 351.272C 319.87 351.006 324.227 351.885 327.969 350.678C 344.324 345.405 363.159 325.692 368.384 309.6C 371.022 301.475 370.4 292.421 370.4 284C 370.4 276.206 371.809 267.078 367.916 260C 364.983 254.666 358.491 246.438 352.797 243.95C 337.222 237.148 308.431 243.848 308 264z"/>
<path style="stroke:none; fill:#f9faa3" d="M 144.8 243.2C 145.682 244.366 146.034 244.718 147.2 245.6C 146.481 243.901 146.499 243.919 144.8 243.2z"/>
<path style="stroke:none; fill:#df8968" d="M 156.534 243.466C 156.178 243.822 157.022 243.778 157.066 243.734C 157.422 243.378 156.578 243.422 156.534 243.466M 208.8 244L 208.8 244.8C 211.538 244.778 214.11 244.5 216.8 244C 214.201 242.986 211.546 243.783 208.8 244M 158.4 244C 161.536 247.123 166.961 246.394 171.2 246.4L 202.4 246.4C 198.03 244.566 191.91 245.6 187.2 245.6C 177.405 245.6 168.109 245.228 158.4 244M 204.8 244.8L 204.8 245.6L 208 245.6C 206.795 245.054 206.148 244.939 204.8 244.8M 216 249.6L 216 250.4C 218.393 250.824 222.266 249.389 223.518 252.134C 225.308 256.058 224 262.942 224 267.2C 224 279.43 223.497 291.782 224.031 304C 224.317 310.516 227.622 317.712 226.4 324C 228.898 326.024 230.022 328.231 231.2 331.2L 232 331.2C 230.587 324.411 226.663 318.058 225.692 311.2C 222.748 290.406 224.8 268.187 224.8 247.2C 221.836 248.009 219.05 249.143 216 249.6z"/>
<path style="stroke:none; fill:#af161b" d="M 324.8 248.8L 324.8 249.6L 350.4 249.6C 342.878 246.442 332.696 248.177 324.8 248.8z"/>
<path style="stroke:none; fill:#fb0202" d="M 304 344.8C 310.504 344.8 318.486 346.055 324.797 344.42C 333.743 342.102 343.762 333.644 350.063 327.096C 354.57 322.412 355.839 314.362 361.6 311.2C 363.634 295.107 362.938 280.073 363.2 264C 358.842 260.082 356.868 253.426 351.661 250.422C 348.838 248.794 344.726 249.762 341.6 249.464C 330.652 248.422 319.414 249.353 314.982 261.603C 312.915 267.316 314.441 275.574 314.399 281.6C 314.382 284.183 314.442 288.414 311.169 289.166C 309.255 289.606 307.91 287.973 307.454 286.324C 305.32 278.611 306.262 273.546 300.828 266.57C 297.546 262.356 292.749 262.734 288 262.172C 276.086 260.761 258.153 265.906 256.847 280.803C 254.79 304.266 269.246 317.372 283.326 333.261C 286.124 336.418 300.282 355.374 304 344.8z"/>
<path style="stroke:none; fill:#f9faa3" d="M 408.8 248.8C 408.8 254.127 409.241 259.59 408 264.8C 411.074 262.114 410.389 252.842 410.4 248.8L 408.8 248.8z"/>
<path style="stroke:none; fill:#fc8142" d="M 167.2 252.8C 167.2 273.546 164.507 288.325 151.115 304.478C 147.262 309.125 143.887 315.94 136.8 315.2C 133.583 318.665 129.591 316.99 126 319.229C 116.57 325.106 110.129 324.39 99.2 325.344C 83.1016 326.75 67.4177 327.2 51.2 327.2L 51.2 328L 89.6 328L 89.6 329.6C 67.7326 329.6 47.1254 330.622 26.4 324.8L 26.4 325.6L 28.8 328C 26.9621 327.461 26.5807 327.228 25.6 325.6C 22.6202 326.097 22.0906 323.947 21.6 326.4L 20.8 326.4L 21.6 322.4C 20.4172 321.611 20.6374 321.6 19.2 321.6C 20.4271 320.782 20.3218 320.956 20.8 320C 16.5265 316.158 11.9225 315.699 7.3358 312.868C 5.75543 311.892 3.35144 309.205 1.27963 310.51C -0.507481 311.634 0.00362319 315.04 0 316.8L 0 334.4L 0 409.6L 217.6 409.6C 218.521 406.327 220.14 404.643 223.2 403.2L 223.2 402.4L 219.2 401.6L 220.8 400L 219.2 396.8L 220 396.8C 220.405 398.823 220.395 398.823 220.8 396.8L 221.6 396.8L 223.2 401.6L 224 401.6C 224.398 399.034 224.92 398.045 227.2 396.8C 227.861 393.566 229.535 391.715 232 389.6C 232.422 386.256 234.178 383.452 234.4 380C 238.845 378.526 238.014 373.514 237.6 369.6C 238.783 370.389 238.562 370.4 240 370.4C 239.91 368.438 239.75 366.683 239.2 364.8C 241.523 362.77 241.523 358.03 239.2 356C 239.403 348.816 232.798 327.432 226.4 324C 227.986 318.227 224.709 310.823 224.136 304.8C 222.988 292.737 224 280.118 224 268C 224 264.507 225.86 252.638 222.718 250.465C 218.847 247.789 207.324 251.43 203.064 252.436C 192.187 255.002 178.38 252.8 167.2 252.8z"/>
<path style="stroke:none; fill:#af161b" d="M 321.6 251.2L 317.6 256.8C 320.374 255.478 321.777 253.916 323.2 251.2L 321.6 251.2z"/>
<path style="stroke:none; fill:#6d4214" d="M 416 251.2C 415.952 256.974 415.454 263.124 414.4 268.8C 417.591 266.011 417.596 255.003 416 251.2z"/>
<path style="stroke:none; fill:#f9faa3" d="M 159.2 252C 160.012 258.423 160 264.726 160 271.2L 160.8 271.2L 160.8 252L 159.2 252z"/>
<path style="stroke:none; fill:#df8968" d="M 166.4 252L 166.4 273.6L 167.2 273.6L 167.2 252.8L 204.8 252.8C 194.869 248.633 177.221 252 166.4 252z"/>
<path style="stroke:none; fill:#f9faa3" d="M 296 256L 296 256.8C 300.393 258.684 304.067 261.344 308 264L 308 260.8C 303.87 259.39 300.329 256.781 296 256M 308 256L 308 259.2L 308.8 259.2L 309.6 256L 308 256M 268.534 257.066C 268.178 257.422 269.022 257.378 269.066 257.334C 269.422 256.978 268.578 257.022 268.534 257.066z"/>
<path style="stroke:none; fill:#af161b" d="M 316.8 256.8C 315.542 258.492 314.918 259.576 314.4 261.6L 315.2 261.6C 316.142 259.878 316.926 258.714 316.8 256.8M 357.6 256.8L 357.6 258.4L 359.2 258.4C 358.764 257.092 358.908 257.236 357.6 256.8M 359.2 258.4C 359.768 260.755 360.342 261.914 362.4 263.2C 361.562 261.227 360.707 259.923 359.2 258.4M 275.2 260.8L 275.2 261.6L 293.6 262.4C 288.078 260.018 281.106 260.8 275.2 260.8z"/>
<path style="stroke:none; fill:#f9faa3" d="M 260 264C 261.166 263.118 261.518 262.766 262.4 261.6C 260.701 262.319 260.719 262.301 260 264z"/>
<path style="stroke:none; fill:#af161b" d="M 274.134 261.866C 273.778 262.222 274.622 262.178 274.666 262.134C 275.022 261.778 274.178 261.822 274.134 261.866M 313.6 261.6L 313.6 288L 314.4 288C 314.4 280.319 316.569 268.675 313.6 261.6M 270.134 262.666C 269.778 263.022 270.622 262.978 270.666 262.934C 271.022 262.578 270.178 262.622 270.134 262.666z"/>
<path style="stroke:none; fill:#f9faa3" d="M 256.8 267.2C 258.202 266.136 258.936 265.402 260 264C 258.201 264.923 257.723 265.401 256.8 267.2z"/>
<path style="stroke:none; fill:#af161b" d="M 256 290.4L 256.8 290.4C 256.8 277.758 261.91 274.671 268.8 264.8C 257.544 270.042 256 279.374 256 290.4M 363.2 264.8C 361.932 274.843 364 287.182 364 297.6L 364.8 297.6C 364.8 288.254 367.652 273.174 363.2 264.8M 300.8 265.6L 302.4 270.4L 303.2 270.4C 302.863 268.126 302.449 267.19 300.8 265.6z"/>
<path style="stroke:none; fill:#f9faa3" d="M 370.4 265.6L 370.4 295.2L 371.2 295.2C 371.2 286.681 373.689 273.438 370.4 265.6M 407.2 265.6C 408.198 274.126 408 282.622 408 291.2L 408.8 291.2C 408.8 285.55 411.498 269.355 407.2 265.6M 251.2 270.4C 246.892 277.491 248.397 296.513 252 304L 252.8 304C 251.317 292.984 247.553 281.397 253.6 271.2C 252.417 270.411 252.638 270.4 251.2 270.4z"/>
<path style="stroke:none; fill:#af161b" d="M 303.466 270.934C 303.422 270.978 303.378 271.822 303.734 271.466C 303.778 271.422 303.822 270.578 303.466 270.934z"/>
<path style="stroke:none; fill:#f9faa3" d="M 159.2 272C 158.294 275.222 157.67 278.246 157.6 281.6L 158.4 281.6C 158.828 278.421 160.301 275.077 159.2 272z"/>
<path style="stroke:none; fill:#df8968" d="M 165.6 273.6L 165.6 276.8L 166.4 276.8C 166.261 275.452 166.146 274.805 165.6 273.6z"/>
<path style="stroke:none; fill:#af161b" d="M 305.866 274.934C 305.822 274.978 305.778 275.822 306.134 275.466C 306.178 275.422 306.222 274.578 305.866 274.934M 307.2 277.6L 307.2 288.8L 308 288.8C 308 285.167 308.615 280.974 307.2 277.6z"/>
<path style="stroke:none; fill:#df8968" d="M 164 280.8L 162.4 287.2L 163.2 287.2C 164.31 284.89 164.942 283.232 164 280.8M 161.6 287.2L 160 292L 160.8 292C 161.688 290.132 162.158 289.17 161.6 287.2z"/>
<path style="stroke:none; fill:#af161b" d="M 309.6 289.6L 309.6 290.4L 312 290.4C 311.002 289.852 310.762 289.801 309.6 289.6M 256.8 290.4C 256.858 297.348 258.525 307.294 264 312C 262.037 306.597 260.38 294.009 256.8 290.4z"/>
<path style="stroke:none; fill:#df8968" d="M 159.2 292C 158.254 293.862 157.422 295.609 156.8 297.6L 157.6 297.6C 158.804 295.618 159.74 294.27 159.2 292z"/>
<path style="stroke:none; fill:#f9faa3" d="M 408 292L 408.8 294.4L 409.6 294.4L 409.6 292L 408 292z"/>
<path style="stroke:none; fill:#6d4214" d="M 416 294.4C 417.12 305.649 424.727 314.242 428 324.8L 428.8 324.8C 428.613 321.196 426.983 317.99 427.2 314.4C 420.758 309.048 421.069 300.541 416 294.4z"/>
<path style="stroke:none; fill:#f9faa3" d="M 409.6 295.2L 409.6 298.4L 410.4 298.4C 410.261 297.052 410.146 296.405 409.6 295.2M 148.8 296L 148.8 297.6C 150.108 297.164 149.964 297.308 150.4 296L 148.8 296z"/>
<path style="stroke:none; fill:#df8968" d="M 156 297.6L 152 303.2C 154.596 302.064 157.025 300.674 156 297.6z"/>
<path style="stroke:none; fill:#af161b" d="M 363.2 297.6C 362.601 300.829 362.402 303.919 362.4 307.2L 363.2 307.2C 363.612 303.937 364.504 300.714 363.2 297.6z"/>
<path style="stroke:none; fill:#f9faa3" d="M 142.4 304.8C 144.696 302.944 146.368 300.862 148 298.4C 145.021 299.856 143.595 301.723 142.4 304.8M 0.8 299.2C 1.92191 301.019 2.81178 301.59 4.8 302.4C 3.50092 300.765 2.68577 300.083 0.8 299.2M 410.666 300.534C 410.622 300.578 410.578 301.422 410.934 301.066C 410.978 301.022 411.022 300.178 410.666 300.534M 411.2 301.6L 411.2 304.8L 412 304.8C 411.861 303.452 411.746 302.805 411.2 301.6M 252.8 304C 252.92 306.638 253.372 308.766 254.4 311.2L 255.2 311.2C 254.626 308.699 254.025 306.253 252.8 304z"/>
<path style="stroke:none; fill:#df8968" d="M 149.6 305.6C 147.97 307.411 146.71 309.038 145.6 311.2C 147.97 310.004 149.846 308.371 149.6 305.6M 0 307.2L 0 310.4C 4.75752 310.212 7.26165 314.714 12 314.4C 8.47368 311.437 4.24919 308.981 0 307.2z"/>
<path style="stroke:none; fill:#f9faa3" d="M 14.4 307.2C 15.1194 308.899 15.1011 308.881 16.8 309.6C 16.0788 308.062 15.939 308.001 14.4 307.2M 136 308.8C 137.264 308.253 137.422 308.156 138.4 307.2C 137.136 307.747 136.978 307.844 136 308.8M 134.134 309.066C 133.778 309.422 134.622 309.378 134.666 309.334C 135.022 308.978 134.178 309.022 134.134 309.066M 128.8 310.4L 128.8 311.2L 132 310.4C 130.673 310.075 130.206 310.153 128.8 310.4M 368 309.6L 365.6 316.8C 368.088 314.734 368.768 312.677 369.6 309.6L 368 309.6M 127.734 311.466C 127.378 311.822 128.222 311.778 128.266 311.734C 128.622 311.378 127.778 311.422 127.734 311.466z"/>
<path style="stroke:none; fill:#df8968" d="M 137.6 314.4L 137.6 316C 141.208 315.518 143.384 314.061 145.6 311.2C 142.867 312.226 140.455 313.731 137.6 314.4z"/>
<path style="stroke:none; fill:#af161b" d="M 359.2 311.2C 357.724 314.15 355.849 316.742 355.2 320C 358.306 317.95 359.768 314.714 360.8 311.2L 359.2 311.2M 264.266 312.534C 264.222 312.578 264.178 313.422 264.534 313.066C 264.578 313.022 264.622 312.178 264.266 312.534z"/>
<path style="stroke:none; fill:#df8968" d="M 128 317.6L 128 318.4C 131.574 318.66 134.877 318.473 136.8 315.2L 128 317.6z"/>
<path style="stroke:none; fill:#af161b" d="M 266.134 315.466C 265.778 315.822 266.622 315.778 266.666 315.734C 267.022 315.378 266.178 315.422 266.134 315.466z"/>
<path style="stroke:none; fill:#f9faa3" d="M 110.4 318.4L 116 317.6C 113.718 316.111 112.023 316.13 110.4 318.4M 116.8 316.8L 116.8 317.6L 120 316.8C 118.553 316.341 118.345 316.428 116.8 316.8M 258.4 316.8C 258.836 318.108 258.692 317.964 260 318.4L 260 316.8L 258.4 316.8z"/>
<path style="stroke:none; fill:#df8968" d="M 18.1334 317.866C 17.7778 318.222 18.6222 318.178 18.6666 318.134C 19.0222 317.778 18.1778 317.822 18.1334 317.866z"/>
<path style="stroke:none; fill:#fc7d43" d="M 20 318.4C 20.1438 320.03 20.1311 320.358 19.2 321.6L 21.6 322.4L 20.8 326.4L 21.6 326.4L 22.4 324.8C 23.5412 325.992 23.8938 325.834 25.6 325.6C 26.0624 327.758 26.6091 327.831 28.8 328C 28.0788 326.462 27.939 326.401 26.4 325.6L 26.4 324.8C 45.1316 333.292 69.1825 329.6 89.6 329.6L 89.6 328C 72.7486 328 52.3997 330.75 36 326.721C 30.2541 325.31 25.5535 320.678 20 318.4z"/>
<path style="stroke:none; fill:#f9faa3" d="M 101.6 318.4L 101.6 319.2L 110.4 319.2C 107.654 318.048 104.56 318.4 101.6 318.4M 44 320L 44 320.8L 93.6 320.8C 89.0344 318.884 82.5232 320 77.6 320L 44 320z"/>
<path style="stroke:none; fill:#df8968" d="M 123.2 320C 122.015 321.278 121.551 321.686 120 322.4L 120 323.2C 122.689 323.091 123.476 322.326 124.8 320L 123.2 320z"/>
<path style="stroke:none; fill:#f9faa3" d="M 262.4 322.4C 265.066 325.471 267.477 328.649 271.2 330.4C 269.054 327.262 266.576 324.397 264 321.6L 262.4 322.4M 419.2 321.6C 419.586 323.491 419.709 323.614 421.6 324C 420.799 322.461 420.738 322.322 419.2 321.6z"/>
<path style="stroke:none; fill:#af161b" d="M 353.6 322.4L 354.4 323.2L 353.6 322.4z"/>
<path style="stroke:none; fill:#df8968" d="M 101.6 324.8L 101.6 325.6C 106.978 325.6 111.804 326.29 116.8 324C 112.7 322.787 106.146 324.8 101.6 324.8z"/>
<path style="stroke:none; fill:#f9faa3" d="M 236 323.2L 237.6 329.6L 238.4 329.6C 238.558 326.796 237.951 325.224 236 323.2z"/>
<path style="stroke:none; fill:#af161b" d="M 272.8 323.2L 273.6 324L 272.8 323.2M 352.8 323.2L 353.6 324L 352.8 323.2z"/>
<path style="stroke:none; fill:#df8968" d="M 29.6 324L 29.6 324.8C 46.637 331.532 71.3985 327.2 89.6 327.2L 89.6 326.4C 69.6494 326.4 49.1703 328.038 29.6 324z"/>
<path style="stroke:none; fill:#af161b" d="M 274.4 324.8L 275.2 325.6L 274.4 324.8M 351.2 324.8L 352 325.6L 351.2 324.8M 275.2 325.6C 277.995 329.572 281.421 333.476 285.6 336C 283.436 331.758 279.518 327.615 275.2 325.6M 350.4 325.6L 351.2 326.4L 350.4 325.6z"/>
<path style="stroke:none; fill:#f9faa3" d="M 422.4 327.2C 422.913 329.768 423.634 331.075 425.6 332.8C 424.805 330.63 423.908 328.95 422.4 327.2M 356 328.8C 351.271 334.217 345.13 339.15 339.2 343.2L 339.2 344C 343.748 342.816 347.859 339.819 352 337.6L 351.2 336C 353.905 334.344 356.201 331.638 357.6 328.8L 356 328.8z"/>
<path style="stroke:none; fill:#af161b" d="M 345.6 329.6L 345.6 331.2C 346.908 330.764 346.764 330.908 347.2 329.6L 345.6 329.6z"/>
<path style="stroke:none; fill:#f9faa3" d="M 240 330.4C 239.538 333.706 239.807 336.342 241.6 339.2C 241.941 336.328 242.41 332.273 240 330.4M 271.2 330.4C 272.239 332.61 273.242 333.731 275.2 335.2C 274.161 332.99 273.158 331.869 271.2 330.4z"/>
<path style="stroke:none; fill:#af161b" d="M 344 331.2L 344 332.8C 345.308 332.364 345.164 332.508 345.6 331.2L 344 331.2z"/>
<path style="stroke:none; fill:#df8968" d="M 232 332C 232.075 333.764 232.285 335.115 232.8 336.8L 233.6 336.8C 233.316 334.927 232.98 333.61 232 332z"/>
<path style="stroke:none; fill:#f9faa3" d="M 426.4 333.6L 427.2 336.8L 428 336.8C 427.591 335.238 427.414 334.834 426.4 333.6z"/>
<path style="stroke:none; fill:#af161b" d="M 340.8 334.4L 341.6 335.2L 340.8 334.4z"/>
<path style="stroke:none; fill:#df8968" d="M 233.6 336.8C 233.741 338.302 233.95 339.359 234.4 340.8L 235.2 340.8C 234.816 339.232 234.45 338.154 233.6 336.8z"/>
<path style="stroke:none; fill:#af161b" d="M 337.6 336.8L 338.4 337.6L 337.6 336.8M 336.534 337.866C 336.178 338.222 337.022 338.178 337.066 338.134C 337.422 337.778 336.578 337.822 336.534 337.866z"/>
<path style="stroke:none; fill:#f9faa3" d="M 278.934 338.666C 278.578 339.022 279.422 338.978 279.466 338.934C 279.822 338.578 278.978 338.622 278.934 338.666M 428.8 338.4C 428.986 342.654 429.978 350.384 433.6 352.8C 433.11 348.782 432.162 340.773 428.8 338.4z"/>
<path style="stroke:none; fill:#6d4214" d="M 436.8 339.2C 437.649 349.85 443.954 354.355 449.677 362.412C 454.071 368.598 456.698 375.983 460.8 382.4L 461.6 382.4L 459.2 373.6C 457.762 373.6 457.983 373.611 456.8 374.4C 454.654 364.114 447.912 359.319 442.342 351.201C 439.776 347.461 439.272 342.79 436.8 339.2z"/>
<path style="stroke:none; fill:#af161b" d="M 329.6 342.4L 333.6 340.8C 331.51 340.102 330.762 340.579 329.6 342.4z"/>
<path style="stroke:none; fill:#df8968" d="M 235.2 341.6L 236 344.8L 236.8 344.8C 236.349 343.398 236.065 342.766 235.2 341.6z"/>
<path style="stroke:none; fill:#f9faa3" d="M 284 343.2C 285.039 345.41 286.042 346.531 288 348C 286.961 345.79 285.958 344.669 284 343.2z"/>
<path style="stroke:none; fill:#af161b" d="M 325.6 344.8C 326.864 344.253 327.022 344.156 328 343.2C 326.736 343.747 326.578 343.844 325.6 344.8M 293.6 344L 294.4 344.8L 293.6 344M 304 347.2C 311.104 345.504 318.344 345.6 325.6 345.6C 322.275 343.685 304.854 343.212 304 347.2z"/>
<path style="stroke:none; fill:#f9faa3" d="M 244.266 346.934C 244.222 346.978 244.178 347.822 244.534 347.466C 244.578 347.422 244.622 346.578 244.266 346.934z"/>
<path style="stroke:none; fill:#af161b" d="M 296.8 347.2L 299.2 350.4L 300 350.4C 300.949 349.451 301.222 349.133 301.6 348L 296.8 347.2M 302.4 347.2L 303.2 348L 302.4 347.2z"/>
<path style="stroke:none; fill:#f9faa3" d="M 332 347.2L 329.6 349.6L 329.6 350.4C 331.826 349.75 332.502 349.238 333.6 347.2L 332 347.2z"/>
<path style="stroke:none; fill:#df8968" d="M 237.866 348.534C 237.822 348.578 237.778 349.422 238.134 349.066C 238.178 349.022 238.222 348.178 237.866 348.534z"/>
<path style="stroke:none; fill:#f9faa3" d="M 288.8 349.6C 290.517 351.783 292.07 353.673 294.4 355.2C 293.515 352.575 292.246 350.868 290.4 348.8L 288.8 349.6z"/>
<path style="stroke:none; fill:#df8968" d="M 238.4 350.4L 239.2 356C 241.271 358.734 241.271 362.066 239.2 364.8L 240 370.4L 240.8 370.4C 241.898 362.93 243.879 356.77 238.4 350.4z"/>
<path style="stroke:none; fill:#f9faa3" d="M 307.2 352L 307.2 352.8L 328 352C 321.855 349.422 313.663 351.866 307.2 352M 247.2 352C 247.778 356.577 248 360.982 248 365.6L 248.8 365.6L 248.8 352L 247.2 352M 302.4 357.6L 307.2 353.6C 304.279 353.003 303.154 354.998 302.4 357.6M 294.4 356.8C 296.144 360.279 297.458 362.531 301.6 362.4L 301.6 361.6L 300 360.8C 301.559 360.051 302.04 359.686 303.2 358.4C 299.592 359.257 297.698 358.194 294.4 356.8M 436.8 356.8C 437.646 360.81 440.734 362.558 443.2 365.6L 444 365.6C 442.874 361.906 439.598 359.377 436.8 356.8M 247.2 367.2L 246.4 371.2L 247.2 371.2C 247.674 369.476 247.819 368.835 247.2 367.2z"/>
<path style="stroke:none; fill:#df8968" d="M 237.6 369.6L 237.6 377.6L 238.4 377.6C 239.037 374.502 240.386 371.738 237.6 369.6z"/>
<path style="stroke:none; fill:#f9faa3" d="M 244.8 374.4L 244 379.2C 245.583 377.882 245.85 376.4 246.4 374.4L 244.8 374.4M 448.8 374.4C 449.347 375.664 449.444 375.822 450.4 376.8C 449.853 375.536 449.756 375.378 448.8 374.4z"/>
<path style="stroke:none; fill:#fc7d43" d="M 234.4 380L 234.4 384L 235.2 384L 236 380L 234.4 380z"/>
<path style="stroke:none; fill:#df8968" d="M 236.266 380.534C 236.222 380.578 236.178 381.422 236.534 381.066C 236.578 381.022 236.622 380.178 236.266 380.534z"/>
<path style="stroke:none; fill:#f9faa3" d="M 243.2 380L 242.4 384L 243.2 384L 244.8 380L 243.2 380z"/>
<path style="stroke:none; fill:#df8968" d="M 233.6 384L 232.8 387.2L 233.6 387.2C 233.847 385.794 233.925 385.327 233.6 384z"/>
<path style="stroke:none; fill:#6d4214" d="M 462.4 384.8L 463.2 388L 464 388C 463.754 386.302 463.694 385.851 462.4 384.8z"/>
<path style="stroke:none; fill:#df8968" d="M 232 387.2L 231.2 388.8L 232.8 388.8C 232.8 387.318 233.04 387.72 232 387.2z"/>
<path style="stroke:none; fill:#6d4214" d="M 464.8 388C 466.63 393.03 469.322 398.296 473.6 401.6C 471.762 397.164 468.906 390.635 464.8 388z"/>
<path style="stroke:none; fill:#df8968" d="M 230.4 389.6L 230.4 391.2C 231.708 390.764 231.564 390.908 232 389.6L 230.4 389.6z"/>
<path style="stroke:none; fill:#f9faa3" d="M 458.4 391.2L 457.6 392C 458.76 393.286 459.241 393.651 460.8 394.4C 460.051 392.841 459.686 392.36 458.4 391.2z"/>
<path style="stroke:none; fill:#df8968" d="M 228 392L 227.2 395.2C 228.602 394.136 229.336 393.402 230.4 392L 228 392z"/>
<path style="stroke:none; fill:#f9faa3" d="M 460.8 394.4L 461.6 397.6L 462.4 397.6C 461.949 396.198 461.665 395.566 460.8 394.4z"/>
<path style="stroke:none; fill:#fc7d43" d="M 219.2 396.8C 219.514 398.629 219.733 399.818 219.2 401.6L 223.2 402.4C 222.933 400.39 222.283 398.704 221.6 396.8L 220.8 396.8C 220.066 397.84 220.333 397.634 219.2 396.8z"/>
<path style="stroke:none; fill:#df8968" d="M 224.8 396.8C 224.35 398.241 224.141 399.298 224 400.8L 224.8 400.8L 226.4 396.8L 224.8 396.8M 217.6 408C 219.606 406.564 220.964 405.206 222.4 403.2C 219.917 404.386 218.786 405.517 217.6 408z"/>
<path style="stroke:none; fill:#6d4214" d="M 475.2 404C 476.669 405.958 477.79 406.961 480 408C 478.531 406.042 477.41 405.039 475.2 404z"/>
</g>
</svg>